<?xml version="1.0" encoding="UTF-8" standalone="no"?>
<!DOCTYPE svg PUBLIC "-//W3C//DTD SVG 1.1//EN"
 "http://www.w3.org/Graphics/SVG/1.1/DTD/svg11.dtd">
<!-- Generated by graphviz version 12.1.2 (20240928.0832)
 -->
<!-- Title: public.m_playlist Pages: 1 -->
<svg width="808pt" height="818pt"
 viewBox="0.00 0.00 808.16 817.60" xmlns="http://www.w3.org/2000/svg" xmlns:xlink="http://www.w3.org/1999/xlink">
<g id="graph0" class="graph" transform="scale(1 1) rotate(0) translate(4 813.6)">
<title>public.m_playlist</title>
<polygon fill="white" stroke="none" points="-4,4 -4,-813.6 804.16,-813.6 804.16,4 -4,4"/>
<!-- public.m_playlist -->
<g id="node1" class="node">
<title>public.m_playlist</title>
<polygon fill="#efefef" stroke="none" points="67.02,-385 67.02,-420.6 332.35,-420.6 332.35,-385 67.02,-385"/>
<polygon fill="none" stroke="black" points="67.02,-385 67.02,-420.6 332.35,-420.6 332.35,-385 67.02,-385"/>
<text text-anchor="start" x="74.7" y="-398.4" font-family="Arial Bold" font-size="18.00">public.m_playlist</text>
<text text-anchor="start" x="200.19" y="-398.4" font-family="Arial" font-size="14.00">    </text>
<text text-anchor="start" x="231.3" y="-398.4" font-family="Arial" font-size="14.00" fill="#666666">[BASE TABLE]</text>
<polygon fill="none" stroke="black" points="67.02,-354.2 67.02,-385 332.35,-385 332.35,-354.2 67.02,-354.2"/>
<text text-anchor="start" x="74.02" y="-366.4" font-family="Arial" font-size="14.00">m_playlist_id </text>
<text text-anchor="start" x="158.83" y="-366.4" font-family="Arial" font-size="14.00" fill="#666666">[bigint]</text>
<polygon fill="none" stroke="black" points="67.02,-323.4 67.02,-354.2 332.35,-354.2 332.35,-323.4 67.02,-323.4"/>
<text text-anchor="start" x="74.02" y="-335.6" font-family="Arial" font-size="14.00">m_user_id </text>
<text text-anchor="start" x="143.27" y="-335.6" font-family="Arial" font-size="14.00" fill="#666666">[bigint]</text>
<polygon fill="none" stroke="black" points="67.02,-292.6 67.02,-323.4 332.35,-323.4 332.35,-292.6 67.02,-292.6"/>
<text text-anchor="start" x="74.02" y="-304.8" font-family="Arial" font-size="14.00">visibility_code </text>
<text text-anchor="start" x="164.28" y="-304.8" font-family="Arial" font-size="14.00" fill="#666666">[integer]</text>
<polygon fill="none" stroke="black" points="67.02,-261.8 67.02,-292.6 332.35,-292.6 332.35,-261.8 67.02,-261.8"/>
<text text-anchor="start" x="74.02" y="-274" font-family="Arial" font-size="14.00">playlist_title </text>
<text text-anchor="start" x="150.27" y="-274" font-family="Arial" font-size="14.00" fill="#666666">[varchar(128)]</text>
<polygon fill="none" stroke="black" points="67.02,-231 67.02,-261.8 332.35,-261.8 332.35,-231 67.02,-231"/>
<text text-anchor="start" x="74.02" y="-243.2" font-family="Arial" font-size="14.00">playlist_code </text>
<text text-anchor="start" x="158.85" y="-243.2" font-family="Arial" font-size="14.00" fill="#666666">[integer]</text>
<polygon fill="none" stroke="black" points="67.02,-200.2 67.02,-231 332.35,-231 332.35,-200.2 67.02,-200.2"/>
<text text-anchor="start" x="74.02" y="-212.4" font-family="Arial" font-size="14.00">video_count </text>
<text text-anchor="start" x="153.41" y="-212.4" font-family="Arial" font-size="14.00" fill="#666666">[integer]</text>
<polygon fill="none" stroke="black" points="67.02,-169.4 67.02,-200.2 332.35,-200.2 332.35,-169.4 67.02,-169.4"/>
<text text-anchor="start" x="74.02" y="-181.6" font-family="Arial" font-size="14.00">created_at </text>
<text text-anchor="start" x="144.07" y="-181.6" font-family="Arial" font-size="14.00" fill="#666666">[timestamp with time zone]</text>
<polygon fill="none" stroke="black" points="67.02,-138.6 67.02,-169.4 332.35,-169.4 332.35,-138.6 67.02,-138.6"/>
<text text-anchor="start" x="74.02" y="-150.8" font-family="Arial" font-size="14.00">updated_at </text>
<text text-anchor="start" x="147.98" y="-150.8" font-family="Arial" font-size="14.00" fill="#666666">[timestamp with time zone]</text>
<polygon fill="none" stroke="black" points="67.02,-107.8 67.02,-138.6 332.35,-138.6 332.35,-107.8 67.02,-107.8"/>
<text text-anchor="start" x="74.02" y="-120" font-family="Arial" font-size="14.00">public_id </text>
<text text-anchor="start" x="133.17" y="-120" font-family="Arial" font-size="14.00" fill="#666666">[uuid]</text>
<polygon fill="none" stroke="black" points="67.02,-77 67.02,-107.8 332.35,-107.8 332.35,-77 67.02,-77"/>
<text text-anchor="start" x="74.02" y="-89.2" font-family="Arial" font-size="14.00">playlist_description </text>
<text text-anchor="start" x="196.19" y="-89.2" font-family="Arial" font-size="14.00" fill="#666666">[varchar(255)]</text>
<polygon fill="none" stroke="black" points="67.02,-46.2 67.02,-77 332.35,-77 332.35,-46.2 67.02,-46.2"/>
<text text-anchor="start" x="74.02" y="-58.4" font-family="Arial" font-size="14.00">registered_at </text>
<text text-anchor="start" x="159.63" y="-58.4" font-family="Arial" font-size="14.00" fill="#666666">[timestamp with time zone]</text>
<polygon fill="none" stroke="black" stroke-width="3" points="65.52,-44.7 65.52,-422.1 333.85,-422.1 333.85,-44.7 65.52,-44.7"/>
</g>
<!-- public.m_playlist_video -->
<g id="node2" class="node">
<title>public.m_playlist_video</title>
<polygon fill="#efefef" stroke="none" points="43.2,-730.8 43.2,-766.4 356.17,-766.4 356.17,-730.8 43.2,-730.8"/>
<polygon fill="none" stroke="black" points="43.2,-730.8 43.2,-766.4 356.17,-766.4 356.17,-730.8 43.2,-730.8"/>
<text text-anchor="start" x="50.2" y="-744.2" font-family="Arial Bold" font-size="18.00">public.m_playlist_video</text>
<text text-anchor="start" x="224.68" y="-744.2" font-family="Arial" font-size="14.00">    </text>
<text text-anchor="start" x="255.8" y="-744.2" font-family="Arial" font-size="14.00" fill="#666666">[BASE TABLE]</text>
<polygon fill="none" stroke="black" points="43.2,-700 43.2,-730.8 356.17,-730.8 356.17,-700 43.2,-700"/>
<text text-anchor="start" x="50.2" y="-712.2" font-family="Arial" font-size="14.00">m_playlist_video_id </text>
<text text-anchor="start" x="176.27" y="-712.2" font-family="Arial" font-size="14.00" fill="#666666">[bigint]</text>
<polygon fill="none" stroke="black" points="43.2,-669.2 43.2,-700 356.17,-700 356.17,-669.2 43.2,-669.2"/>
<text text-anchor="start" x="50.2" y="-681.4" font-family="Arial" font-size="14.00">m_playlist_id </text>
<text text-anchor="start" x="135.01" y="-681.4" font-family="Arial" font-size="14.00" fill="#666666">[bigint]</text>
<polygon fill="none" stroke="black" points="43.2,-638.4 43.2,-669.2 356.17,-669.2 356.17,-638.4 43.2,-638.4"/>
<text text-anchor="start" x="50.2" y="-650.6" font-family="Arial" font-size="14.00">m_video_id </text>
<text text-anchor="start" x="125.69" y="-650.6" font-family="Arial" font-size="14.00" fill="#666666">[bigint]</text>
<polygon fill="none" stroke="black" points="43.2,-607.6 43.2,-638.4 356.17,-638.4 356.17,-607.6 43.2,-607.6"/>
<text text-anchor="start" x="50.2" y="-619.8" font-family="Arial" font-size="14.00">playlist_position </text>
<text text-anchor="start" x="152.92" y="-619.8" font-family="Arial" font-size="14.00" fill="#666666">[bigint]</text>
<polygon fill="none" stroke="black" points="43.2,-576.8 43.2,-607.6 356.17,-607.6 356.17,-576.8 43.2,-576.8"/>
<text text-anchor="start" x="50.2" y="-589" font-family="Arial" font-size="14.00">created_at </text>
<text text-anchor="start" x="120.25" y="-589" font-family="Arial" font-size="14.00" fill="#666666">[timestamp with time zone]</text>
<polygon fill="none" stroke="black" points="43.2,-546 43.2,-576.8 356.17,-576.8 356.17,-546 43.2,-546"/>
<text text-anchor="start" x="50.2" y="-558.2" font-family="Arial" font-size="14.00">updated_at </text>
<text text-anchor="start" x="124.16" y="-558.2" font-family="Arial" font-size="14.00" fill="#666666">[timestamp with time zone]</text>
</g>
<!-- public.m_playlist_video&#45;&gt;public.m_playlist -->
<g id="edge1" class="edge">
<title>public.m_playlist_video:m_playlist_id&#45;&gt;public.m_playlist:m_playlist_id</title>
<path fill="none" stroke="black" d="M367.14,-682.25C424.83,-653.42 399.98,-369.6 333.35,-369.6"/>
<polygon fill="black" stroke="black" points="367.23,-682.23 356.46,-680.14 362.04,-683.45 357.82,-684.45 357.82,-684.45 357.82,-684.45 362.04,-683.45 358.53,-688.9 367.23,-682.23"/>
<text text-anchor="start" x="364.17" y="-694.6" font-family="Arial" font-size="10.00">FOREIGN KEY (m_playlist_id) REFERENCES m_playlist(m_playlist_id) ON DELETE CASCADE</text>
</g>
</g>
</svg>
