<?xml version="1.0" encoding="UTF-8" standalone="no"?>
<!DOCTYPE svg PUBLIC "-//W3C//DTD SVG 1.1//EN"
 "http://www.w3.org/Graphics/SVG/1.1/DTD/svg11.dtd">
<!-- Generated by graphviz version 12.1.2 (20240928.0832)
 -->
<!-- Title: public.m_user_screen_time_range Pages: 1 -->
<svg width="486pt" height="321pt"
 viewBox="0.00 0.00 486.30 320.80" xmlns="http://www.w3.org/2000/svg" xmlns:xlink="http://www.w3.org/1999/xlink">
<g id="graph0" class="graph" transform="scale(1 1) rotate(0) translate(4 316.8)">
<title>public.m_user_screen_time_range</title>
<polygon fill="white" stroke="none" points="-4,4 -4,-316.8 482.3,-316.8 482.3,4 -4,4"/>
<!-- public.m_user_screen_time_range -->
<g id="node1" class="node">
<title>public.m_user_screen_time_range</title>
<polygon fill="#efefef" stroke="none" points="46.2,-231 46.2,-266.6 432.1,-266.6 432.1,-231 46.2,-231"/>
<polygon fill="none" stroke="black" points="46.2,-231 46.2,-266.6 432.1,-266.6 432.1,-231 46.2,-231"/>
<text text-anchor="start" x="53.2" y="-244.4" font-family="Arial Bold" font-size="18.00">public.m_user_screen_time_range</text>
<text text-anchor="start" x="300.61" y="-244.4" font-family="Arial" font-size="14.00">    </text>
<text text-anchor="start" x="331.73" y="-244.4" font-family="Arial" font-size="14.00" fill="#666666">[BASE TABLE]</text>
<polygon fill="none" stroke="black" points="46.2,-200.2 46.2,-231 432.1,-231 432.1,-200.2 46.2,-200.2"/>
<text text-anchor="start" x="53.2" y="-212.4" font-family="Arial" font-size="14.00">m_user_screen_time_range_id </text>
<text text-anchor="start" x="250.09" y="-212.4" font-family="Arial" font-size="14.00" fill="#666666">[bigint]</text>
<polygon fill="none" stroke="black" points="46.2,-169.4 46.2,-200.2 432.1,-200.2 432.1,-169.4 46.2,-169.4"/>
<text text-anchor="start" x="53.2" y="-181.6" font-family="Arial" font-size="14.00">m_user_id </text>
<text text-anchor="start" x="122.45" y="-181.6" font-family="Arial" font-size="14.00" fill="#666666">[bigint]</text>
<polygon fill="none" stroke="black" points="46.2,-138.6 46.2,-169.4 432.1,-169.4 432.1,-138.6 46.2,-138.6"/>
<text text-anchor="start" x="53.2" y="-150.8" font-family="Arial" font-size="14.00">screen_time_range_start </text>
<text text-anchor="start" x="211.95" y="-150.8" font-family="Arial" font-size="14.00" fill="#666666">[time without time zone]</text>
<polygon fill="none" stroke="black" points="46.2,-107.8 46.2,-138.6 432.1,-138.6 432.1,-107.8 46.2,-107.8"/>
<text text-anchor="start" x="53.2" y="-120" font-family="Arial" font-size="14.00">screen_time_range_end </text>
<text text-anchor="start" x="208.08" y="-120" font-family="Arial" font-size="14.00" fill="#666666">[time without time zone]</text>
<polygon fill="none" stroke="black" points="46.2,-77 46.2,-107.8 432.1,-107.8 432.1,-77 46.2,-77"/>
<text text-anchor="start" x="53.2" y="-89.2" font-family="Arial" font-size="14.00">created_at </text>
<text text-anchor="start" x="123.25" y="-89.2" font-family="Arial" font-size="14.00" fill="#666666">[timestamp with time zone]</text>
<polygon fill="none" stroke="black" points="46.2,-46.2 46.2,-77 432.1,-77 432.1,-46.2 46.2,-46.2"/>
<text text-anchor="start" x="53.2" y="-58.4" font-family="Arial" font-size="14.00">updated_at </text>
<text text-anchor="start" x="127.16" y="-58.4" font-family="Arial" font-size="14.00" fill="#666666">[timestamp with time zone]</text>
<polygon fill="none" stroke="black" stroke-width="3" points="44.7,-44.7 44.7,-268.1 433.6,-268.1 433.6,-44.7 44.7,-44.7"/>
</g>
</g>
</svg>
