<?xml version="1.0" encoding="UTF-8" standalone="no"?>
<!DOCTYPE svg PUBLIC "-//W3C//DTD SVG 1.1//EN"
 "http://www.w3.org/Graphics/SVG/1.1/DTD/svg11.dtd">
<!-- Generated by graphviz version 12.1.2 (20240928.0832)
 -->
<!-- Title: public.t_video_watched Pages: 1 -->
<svg width="411pt" height="228pt"
 viewBox="0.00 0.00 411.34 228.40" xmlns="http://www.w3.org/2000/svg" xmlns:xlink="http://www.w3.org/1999/xlink">
<g id="graph0" class="graph" transform="scale(1 1) rotate(0) translate(4 224.4)">
<title>public.t_video_watched</title>
<polygon fill="white" stroke="none" points="-4,4 -4,-224.4 407.34,-224.4 407.34,4 -4,4"/>
<!-- public.t_video_watched -->
<g id="node1" class="node">
<title>public.t_video_watched</title>
<polygon fill="#efefef" stroke="none" points="46.2,-138.6 46.2,-174.2 357.14,-174.2 357.14,-138.6 46.2,-138.6"/>
<polygon fill="none" stroke="black" points="46.2,-138.6 46.2,-174.2 357.14,-174.2 357.14,-138.6 46.2,-138.6"/>
<text text-anchor="start" x="53.2" y="-152" font-family="Arial Bold" font-size="18.00">public.t_video_watched</text>
<text text-anchor="start" x="225.65" y="-152" font-family="Arial" font-size="14.00">    </text>
<text text-anchor="start" x="256.77" y="-152" font-family="Arial" font-size="14.00" fill="#666666">[BASE TABLE]</text>
<polygon fill="none" stroke="black" points="46.2,-107.8 46.2,-138.6 357.14,-138.6 357.14,-107.8 46.2,-107.8"/>
<text text-anchor="start" x="53.2" y="-120" font-family="Arial" font-size="14.00">t_video_watched_id </text>
<text text-anchor="start" x="180.85" y="-120" font-family="Arial" font-size="14.00" fill="#666666">[bigint]</text>
<polygon fill="none" stroke="black" points="46.2,-77 46.2,-107.8 357.14,-107.8 357.14,-77 46.2,-77"/>
<text text-anchor="start" x="53.2" y="-89.2" font-family="Arial" font-size="14.00">m_user_id </text>
<text text-anchor="start" x="122.45" y="-89.2" font-family="Arial" font-size="14.00" fill="#666666">[bigint]</text>
<polygon fill="none" stroke="black" points="46.2,-46.2 46.2,-77 357.14,-77 357.14,-46.2 46.2,-46.2"/>
<text text-anchor="start" x="53.2" y="-58.4" font-family="Arial" font-size="14.00">m_video_id </text>
<text text-anchor="start" x="128.69" y="-58.4" font-family="Arial" font-size="14.00" fill="#666666">[bigint]</text>
<polygon fill="none" stroke="black" stroke-width="3" points="44.7,-44.7 44.7,-175.7 358.64,-175.7 358.64,-44.7 44.7,-44.7"/>
</g>
</g>
</svg>
