<?xml version="1.0" encoding="UTF-8" standalone="no"?>
<!DOCTYPE svg PUBLIC "-//W3C//DTD SVG 1.1//EN"
 "http://www.w3.org/Graphics/SVG/1.1/DTD/svg11.dtd">
<!-- Generated by graphviz version 12.1.2 (20240928.0832)
 -->
<!-- Title: public.t_jti_blacklist Pages: 1 -->
<svg width="387pt" height="198pt"
 viewBox="0.00 0.00 387.37 197.60" xmlns="http://www.w3.org/2000/svg" xmlns:xlink="http://www.w3.org/1999/xlink">
<g id="graph0" class="graph" transform="scale(1 1) rotate(0) translate(4 193.6)">
<title>public.t_jti_blacklist</title>
<polygon fill="white" stroke="none" points="-4,4 -4,-193.6 383.37,-193.6 383.37,4 -4,4"/>
<!-- public.t_jti_blacklist -->
<g id="node1" class="node">
<title>public.t_jti_blacklist</title>
<polygon fill="#efefef" stroke="none" points="46.2,-107.8 46.2,-143.4 333.17,-143.4 333.17,-107.8 46.2,-107.8"/>
<polygon fill="none" stroke="black" points="46.2,-107.8 46.2,-143.4 333.17,-143.4 333.17,-107.8 46.2,-107.8"/>
<text text-anchor="start" x="53.2" y="-121.2" font-family="Arial Bold" font-size="18.00">public.t_jti_blacklist</text>
<text text-anchor="start" x="201.68" y="-121.2" font-family="Arial" font-size="14.00">    </text>
<text text-anchor="start" x="232.8" y="-121.2" font-family="Arial" font-size="14.00" fill="#666666">[BASE TABLE]</text>
<polygon fill="none" stroke="black" points="46.2,-77 46.2,-107.8 333.17,-107.8 333.17,-77 46.2,-77"/>
<text text-anchor="start" x="53.2" y="-89.2" font-family="Arial" font-size="14.00">jti </text>
<text text-anchor="start" x="67.2" y="-89.2" font-family="Arial" font-size="14.00" fill="#666666">[uuid]</text>
<polygon fill="none" stroke="black" points="46.2,-46.2 46.2,-77 333.17,-77 333.17,-46.2 46.2,-46.2"/>
<text text-anchor="start" x="53.2" y="-58.4" font-family="Arial" font-size="14.00">expires_at </text>
<text text-anchor="start" x="121.68" y="-58.4" font-family="Arial" font-size="14.00" fill="#666666">[timestamp with time zone]</text>
<polygon fill="none" stroke="black" stroke-width="3" points="44.7,-44.7 44.7,-144.9 334.67,-144.9 334.67,-44.7 44.7,-44.7"/>
</g>
</g>
</svg>
