<?xml version="1.0" encoding="UTF-8" standalone="no"?>
<!DOCTYPE svg PUBLIC "-//W3C//DTD SVG 1.1//EN"
 "http://www.w3.org/Graphics/SVG/1.1/DTD/svg11.dtd">
<!-- Generated by graphviz version 12.1.2 (20240928.0832)
 -->
<!-- Title: public.m_playlist Pages: 1 -->
<svg width="393pt" height="444pt"
 viewBox="0.00 0.00 393.03 444.00" xmlns="http://www.w3.org/2000/svg" xmlns:xlink="http://www.w3.org/1999/xlink">
<g id="graph0" class="graph" transform="scale(1 1) rotate(0) translate(4 440)">
<title>public.m_playlist</title>
<polygon fill="white" stroke="none" points="-4,4 -4,-440 389.03,-440 389.03,4 -4,4"/>
<!-- public.m_playlist -->
<g id="node1" class="node">
<title>public.m_playlist</title>
<polygon fill="#efefef" stroke="none" points="46.2,-354.2 46.2,-389.8 338.83,-389.8 338.83,-354.2 46.2,-354.2"/>
<polygon fill="none" stroke="black" points="46.2,-354.2 46.2,-389.8 338.83,-389.8 338.83,-354.2 46.2,-354.2"/>
<text text-anchor="start" x="67.53" y="-367.6" font-family="Arial Bold" font-size="18.00">public.m_playlist</text>
<text text-anchor="start" x="193.02" y="-367.6" font-family="Arial" font-size="14.00">    </text>
<text text-anchor="start" x="224.13" y="-367.6" font-family="Arial" font-size="14.00" fill="#666666">[BASE TABLE]</text>
<polygon fill="none" stroke="black" points="46.2,-323.4 46.2,-354.2 338.83,-354.2 338.83,-323.4 46.2,-323.4"/>
<text text-anchor="start" x="53.2" y="-335.6" font-family="Arial" font-size="14.00">m_playlist_id </text>
<text text-anchor="start" x="138.01" y="-335.6" font-family="Arial" font-size="14.00" fill="#666666">[bigint]</text>
<polygon fill="none" stroke="black" points="46.2,-292.6 46.2,-323.4 338.83,-323.4 338.83,-292.6 46.2,-292.6"/>
<text text-anchor="start" x="53.2" y="-304.8" font-family="Arial" font-size="14.00">m_user_id </text>
<text text-anchor="start" x="122.45" y="-304.8" font-family="Arial" font-size="14.00" fill="#666666">[bigint]</text>
<polygon fill="none" stroke="black" points="46.2,-261.8 46.2,-292.6 338.83,-292.6 338.83,-261.8 46.2,-261.8"/>
<text text-anchor="start" x="53.2" y="-274" font-family="Arial" font-size="14.00">visibility_code </text>
<text text-anchor="start" x="143.46" y="-274" font-family="Arial" font-size="14.00" fill="#666666">[integer]</text>
<polygon fill="none" stroke="black" points="46.2,-231 46.2,-261.8 338.83,-261.8 338.83,-231 46.2,-231"/>
<text text-anchor="start" x="53.2" y="-243.2" font-family="Arial" font-size="14.00">playlist_title </text>
<text text-anchor="start" x="129.45" y="-243.2" font-family="Arial" font-size="14.00" fill="#666666">[varchar(128)]</text>
<polygon fill="none" stroke="black" points="46.2,-200.2 46.2,-231 338.83,-231 338.83,-200.2 46.2,-200.2"/>
<text text-anchor="start" x="53.2" y="-212.4" font-family="Arial" font-size="14.00">playlist_code </text>
<text text-anchor="start" x="138.03" y="-212.4" font-family="Arial" font-size="14.00" fill="#666666">[integer]</text>
<polygon fill="none" stroke="black" points="46.2,-169.4 46.2,-200.2 338.83,-200.2 338.83,-169.4 46.2,-169.4"/>
<text text-anchor="start" x="53.2" y="-181.6" font-family="Arial" font-size="14.00">video_count </text>
<text text-anchor="start" x="132.59" y="-181.6" font-family="Arial" font-size="14.00" fill="#666666">[integer]</text>
<polygon fill="none" stroke="black" points="46.2,-138.6 46.2,-169.4 338.83,-169.4 338.83,-138.6 46.2,-138.6"/>
<text text-anchor="start" x="53.2" y="-150.8" font-family="Arial" font-size="14.00">playlist_total_video_length_seconds </text>
<text text-anchor="start" x="281.25" y="-150.8" font-family="Arial" font-size="14.00" fill="#666666">[integer]</text>
<polygon fill="none" stroke="black" points="46.2,-107.8 46.2,-138.6 338.83,-138.6 338.83,-107.8 46.2,-107.8"/>
<text text-anchor="start" x="53.2" y="-120" font-family="Arial" font-size="14.00">created_at </text>
<text text-anchor="start" x="123.25" y="-120" font-family="Arial" font-size="14.00" fill="#666666">[timestamp with time zone]</text>
<polygon fill="none" stroke="black" points="46.2,-77 46.2,-107.8 338.83,-107.8 338.83,-77 46.2,-77"/>
<text text-anchor="start" x="53.2" y="-89.2" font-family="Arial" font-size="14.00">updated_at </text>
<text text-anchor="start" x="127.16" y="-89.2" font-family="Arial" font-size="14.00" fill="#666666">[timestamp with time zone]</text>
<polygon fill="none" stroke="black" points="46.2,-46.2 46.2,-77 338.83,-77 338.83,-46.2 46.2,-46.2"/>
<text text-anchor="start" x="53.2" y="-58.4" font-family="Arial" font-size="14.00">public_id </text>
<text text-anchor="start" x="112.35" y="-58.4" font-family="Arial" font-size="14.00" fill="#666666">[uuid]</text>
<polygon fill="none" stroke="black" stroke-width="3" points="44.7,-44.7 44.7,-391.3 340.33,-391.3 340.33,-44.7 44.7,-44.7"/>
</g>
</g>
</svg>
