<?xml version="1.0" encoding="UTF-8" standalone="no"?>
<!DOCTYPE svg PUBLIC "-//W3C//DTD SVG 1.1//EN"
 "http://www.w3.org/Graphics/SVG/1.1/DTD/svg11.dtd">
<!-- Generated by graphviz version 12.1.2 (20240928.0832)
 -->
<!-- Title: public.m_video Pages: 1 -->
<svg width="408pt" height="444pt"
 viewBox="0.00 0.00 407.76 444.00" xmlns="http://www.w3.org/2000/svg" xmlns:xlink="http://www.w3.org/1999/xlink">
<g id="graph0" class="graph" transform="scale(1 1) rotate(0) translate(4 440)">
<title>public.m_video</title>
<polygon fill="white" stroke="none" points="-4,4 -4,-440 403.76,-440 403.76,4 -4,4"/>
<!-- public.m_video -->
<g id="node1" class="node">
<title>public.m_video</title>
<polygon fill="#efefef" stroke="none" points="46.2,-354.2 46.2,-389.8 353.56,-389.8 353.56,-354.2 46.2,-354.2"/>
<polygon fill="none" stroke="black" points="46.2,-354.2 46.2,-389.8 353.56,-389.8 353.56,-354.2 46.2,-354.2"/>
<text text-anchor="start" x="81.4" y="-367.6" font-family="Arial Bold" font-size="18.00">public.m_video</text>
<text text-anchor="start" x="193.88" y="-367.6" font-family="Arial" font-size="14.00">    </text>
<text text-anchor="start" x="225" y="-367.6" font-family="Arial" font-size="14.00" fill="#666666">[BASE TABLE]</text>
<polygon fill="none" stroke="black" points="46.2,-323.4 46.2,-354.2 353.56,-354.2 353.56,-323.4 46.2,-323.4"/>
<text text-anchor="start" x="53.2" y="-335.6" font-family="Arial" font-size="14.00">m_video_id </text>
<text text-anchor="start" x="128.69" y="-335.6" font-family="Arial" font-size="14.00" fill="#666666">[bigint]</text>
<polygon fill="none" stroke="black" points="46.2,-292.6 46.2,-323.4 353.56,-323.4 353.56,-292.6 46.2,-292.6"/>
<text text-anchor="start" x="53.2" y="-304.8" font-family="Arial" font-size="14.00">m_channel_id </text>
<text text-anchor="start" x="144.26" y="-304.8" font-family="Arial" font-size="14.00" fill="#666666">[bigint]</text>
<polygon fill="none" stroke="black" points="46.2,-261.8 46.2,-292.6 353.56,-292.6 353.56,-261.8 46.2,-261.8"/>
<text text-anchor="start" x="53.2" y="-274" font-family="Arial" font-size="14.00">external_id </text>
<text text-anchor="start" x="125.58" y="-274" font-family="Arial" font-size="14.00" fill="#666666">[varchar(16)]</text>
<polygon fill="none" stroke="black" points="46.2,-231 46.2,-261.8 353.56,-261.8 353.56,-231 46.2,-231"/>
<text text-anchor="start" x="53.2" y="-243.2" font-family="Arial" font-size="14.00">external_title </text>
<text text-anchor="start" x="136.47" y="-243.2" font-family="Arial" font-size="14.00" fill="#666666">[varchar(128)]</text>
<polygon fill="none" stroke="black" points="46.2,-200.2 46.2,-231 353.56,-231 353.56,-200.2 46.2,-200.2"/>
<text text-anchor="start" x="53.2" y="-212.4" font-family="Arial" font-size="14.00">external_description </text>
<text text-anchor="start" x="182.39" y="-212.4" font-family="Arial" font-size="14.00" fill="#666666">[varchar(8192)]</text>
<polygon fill="none" stroke="black" points="46.2,-169.4 46.2,-200.2 353.56,-200.2 353.56,-169.4 46.2,-169.4"/>
<text text-anchor="start" x="53.2" y="-181.6" font-family="Arial" font-size="14.00">fetched_at </text>
<text text-anchor="start" x="122.48" y="-181.6" font-family="Arial" font-size="14.00" fill="#666666">[timestamp with time zone]</text>
<polygon fill="none" stroke="black" points="46.2,-138.6 46.2,-169.4 353.56,-169.4 353.56,-138.6 46.2,-138.6"/>
<text text-anchor="start" x="53.2" y="-150.8" font-family="Arial" font-size="14.00">created_at </text>
<text text-anchor="start" x="123.25" y="-150.8" font-family="Arial" font-size="14.00" fill="#666666">[timestamp with time zone]</text>
<polygon fill="none" stroke="black" points="46.2,-107.8 46.2,-138.6 353.56,-138.6 353.56,-107.8 46.2,-107.8"/>
<text text-anchor="start" x="53.2" y="-120" font-family="Arial" font-size="14.00">updated_at </text>
<text text-anchor="start" x="127.16" y="-120" font-family="Arial" font-size="14.00" fill="#666666">[timestamp with time zone]</text>
<polygon fill="none" stroke="black" points="46.2,-77 46.2,-107.8 353.56,-107.8 353.56,-77 46.2,-77"/>
<text text-anchor="start" x="53.2" y="-89.2" font-family="Arial" font-size="14.00">public_id </text>
<text text-anchor="start" x="112.35" y="-89.2" font-family="Arial" font-size="14.00" fill="#666666">[uuid]</text>
<polygon fill="none" stroke="black" points="46.2,-46.2 46.2,-77 353.56,-77 353.56,-46.2 46.2,-46.2"/>
<text text-anchor="start" x="53.2" y="-58.4" font-family="Arial" font-size="14.00">external_created_at </text>
<text text-anchor="start" x="180.84" y="-58.4" font-family="Arial" font-size="14.00" fill="#666666">[timestamp with time zone]</text>
<polygon fill="none" stroke="black" stroke-width="3" points="44.7,-44.7 44.7,-391.3 355.06,-391.3 355.06,-44.7 44.7,-44.7"/>
</g>
</g>
</svg>
