<?xml version="1.0" encoding="UTF-8" standalone="no"?>
<!DOCTYPE svg PUBLIC "-//W3C//DTD SVG 1.1//EN"
 "http://www.w3.org/Graphics/SVG/1.1/DTD/svg11.dtd">
<!-- Generated by graphviz version 12.1.2 (20240928.0832)
 -->
<!-- Title: public.h_user Pages: 1 -->
<svg width="354pt" height="475pt"
 viewBox="0.00 0.00 354.08 474.80" xmlns="http://www.w3.org/2000/svg" xmlns:xlink="http://www.w3.org/1999/xlink">
<g id="graph0" class="graph" transform="scale(1 1) rotate(0) translate(4 470.8)">
<title>public.h_user</title>
<polygon fill="white" stroke="none" points="-4,4 -4,-470.8 350.08,-470.8 350.08,4 -4,4"/>
<!-- public.h_user -->
<g id="node1" class="node">
<title>public.h_user</title>
<polygon fill="#efefef" stroke="none" points="46.2,-385 46.2,-420.6 299.88,-420.6 299.88,-385 46.2,-385"/>
<polygon fill="none" stroke="black" points="46.2,-385 46.2,-420.6 299.88,-420.6 299.88,-385 46.2,-385"/>
<text text-anchor="start" x="62.06" y="-398.4" font-family="Arial Bold" font-size="18.00">public.h_user</text>
<text text-anchor="start" x="159.54" y="-398.4" font-family="Arial" font-size="14.00">    </text>
<text text-anchor="start" x="190.65" y="-398.4" font-family="Arial" font-size="14.00" fill="#666666">[BASE TABLE]</text>
<polygon fill="none" stroke="black" points="46.2,-354.2 46.2,-385 299.88,-385 299.88,-354.2 46.2,-354.2"/>
<text text-anchor="start" x="53.2" y="-366.4" font-family="Arial" font-size="14.00">h_user_id </text>
<text text-anchor="start" x="118.58" y="-366.4" font-family="Arial" font-size="14.00" fill="#666666">[bigint]</text>
<polygon fill="none" stroke="black" points="46.2,-323.4 46.2,-354.2 299.88,-354.2 299.88,-323.4 46.2,-323.4"/>
<text text-anchor="start" x="53.2" y="-335.6" font-family="Arial" font-size="14.00">m_user_authorization_id </text>
<text text-anchor="start" x="210.41" y="-335.6" font-family="Arial" font-size="14.00" fill="#666666">[bigint]</text>
<polygon fill="none" stroke="black" points="46.2,-292.6 46.2,-323.4 299.88,-323.4 299.88,-292.6 46.2,-292.6"/>
<text text-anchor="start" x="53.2" y="-304.8" font-family="Arial" font-size="14.00">display_name </text>
<text text-anchor="start" x="143.48" y="-304.8" font-family="Arial" font-size="14.00" fill="#666666">[varchar(32)]</text>
<polygon fill="none" stroke="black" points="46.2,-261.8 46.2,-292.6 299.88,-292.6 299.88,-261.8 46.2,-261.8"/>
<text text-anchor="start" x="53.2" y="-274" font-family="Arial" font-size="14.00">language_code </text>
<text text-anchor="start" x="152.85" y="-274" font-family="Arial" font-size="14.00" fill="#666666">[varchar(2)]</text>
<polygon fill="none" stroke="black" points="46.2,-231 46.2,-261.8 299.88,-261.8 299.88,-231 46.2,-231"/>
<text text-anchor="start" x="53.2" y="-243.2" font-family="Arial" font-size="14.00">daily_screen_time_seconds </text>
<text text-anchor="start" x="229.85" y="-243.2" font-family="Arial" font-size="14.00" fill="#666666">[integer]</text>
<polygon fill="none" stroke="black" points="46.2,-200.2 46.2,-231 299.88,-231 299.88,-200.2 46.2,-200.2"/>
<text text-anchor="start" x="53.2" y="-212.4" font-family="Arial" font-size="14.00">joined_at </text>
<text text-anchor="start" x="113.92" y="-212.4" font-family="Arial" font-size="14.00" fill="#666666">[timestamp with time zone]</text>
<polygon fill="none" stroke="black" points="46.2,-169.4 46.2,-200.2 299.88,-200.2 299.88,-169.4 46.2,-169.4"/>
<text text-anchor="start" x="53.2" y="-181.6" font-family="Arial" font-size="14.00">left_at </text>
<text text-anchor="start" x="95.23" y="-181.6" font-family="Arial" font-size="14.00" fill="#666666">[timestamp with time zone]</text>
<polygon fill="none" stroke="black" points="46.2,-138.6 46.2,-169.4 299.88,-169.4 299.88,-138.6 46.2,-138.6"/>
<text text-anchor="start" x="53.2" y="-150.8" font-family="Arial" font-size="14.00">leave_reason_code </text>
<text text-anchor="start" x="179.3" y="-150.8" font-family="Arial" font-size="14.00" fill="#666666">[integer]</text>
<polygon fill="none" stroke="black" points="46.2,-107.8 46.2,-138.6 299.88,-138.6 299.88,-107.8 46.2,-107.8"/>
<text text-anchor="start" x="53.2" y="-120" font-family="Arial" font-size="14.00">created_at </text>
<text text-anchor="start" x="123.25" y="-120" font-family="Arial" font-size="14.00" fill="#666666">[timestamp with time zone]</text>
<polygon fill="none" stroke="black" points="46.2,-77 46.2,-107.8 299.88,-107.8 299.88,-77 46.2,-77"/>
<text text-anchor="start" x="53.2" y="-89.2" font-family="Arial" font-size="14.00">updated_at </text>
<text text-anchor="start" x="127.16" y="-89.2" font-family="Arial" font-size="14.00" fill="#666666">[timestamp with time zone]</text>
<polygon fill="none" stroke="black" points="46.2,-46.2 46.2,-77 299.88,-77 299.88,-46.2 46.2,-46.2"/>
<text text-anchor="start" x="53.2" y="-58.4" font-family="Arial" font-size="14.00">public_id </text>
<text text-anchor="start" x="112.35" y="-58.4" font-family="Arial" font-size="14.00" fill="#666666">[uuid]</text>
<polygon fill="none" stroke="black" stroke-width="3" points="44.7,-44.7 44.7,-422.1 301.38,-422.1 301.38,-44.7 44.7,-44.7"/>
</g>
</g>
</svg>
