<?xml version="1.0" encoding="UTF-8" standalone="no"?>
<!DOCTYPE svg PUBLIC "-//W3C//DTD SVG 1.1//EN"
 "http://www.w3.org/Graphics/SVG/1.1/DTD/svg11.dtd">
<!-- Generated by graphviz version 12.1.2 (20240928.0832)
 -->
<!-- Title: public.m_user_authorization Pages: 1 -->
<svg width="981pt" height="1002pt"
 viewBox="0.00 0.00 980.75 1002.40" xmlns="http://www.w3.org/2000/svg" xmlns:xlink="http://www.w3.org/1999/xlink">
<g id="graph0" class="graph" transform="scale(1 1) rotate(0) translate(4 998.4)">
<title>public.m_user_authorization</title>
<polygon fill="white" stroke="none" points="-4,4 -4,-998.4 976.75,-998.4 976.75,4 -4,4"/>
<!-- public.m_user_authorization -->
<g id="node1" class="node">
<title>public.m_user_authorization</title>
<polygon fill="#efefef" stroke="none" points="46.2,-261.8 46.2,-297.4 391.14,-297.4 391.14,-261.8 46.2,-261.8"/>
<polygon fill="none" stroke="black" points="46.2,-261.8 46.2,-297.4 391.14,-297.4 391.14,-261.8 46.2,-261.8"/>
<text text-anchor="start" x="53.2" y="-275.2" font-family="Arial Bold" font-size="18.00">public.m_user_authorization</text>
<text text-anchor="start" x="259.65" y="-275.2" font-family="Arial" font-size="14.00">    </text>
<text text-anchor="start" x="290.76" y="-275.2" font-family="Arial" font-size="14.00" fill="#666666">[BASE TABLE]</text>
<polygon fill="none" stroke="black" points="46.2,-231 46.2,-261.8 391.14,-261.8 391.14,-231 46.2,-231"/>
<text text-anchor="start" x="53.2" y="-243.2" font-family="Arial" font-size="14.00">m_user_authorization_id </text>
<text text-anchor="start" x="210.41" y="-243.2" font-family="Arial" font-size="14.00" fill="#666666">[bigint]</text>
<polygon fill="none" stroke="black" points="46.2,-200.2 46.2,-231 391.14,-231 391.14,-200.2 46.2,-200.2"/>
<text text-anchor="start" x="53.2" y="-212.4" font-family="Arial" font-size="14.00">issuer </text>
<text text-anchor="start" x="94.43" y="-212.4" font-family="Arial" font-size="14.00" fill="#666666">[varchar(256)]</text>
<polygon fill="none" stroke="black" points="46.2,-169.4 46.2,-200.2 391.14,-200.2 391.14,-169.4 46.2,-169.4"/>
<text text-anchor="start" x="53.2" y="-181.6" font-family="Arial" font-size="14.00">sub </text>
<text text-anchor="start" x="79.66" y="-181.6" font-family="Arial" font-size="14.00" fill="#666666">[varchar(256)]</text>
<polygon fill="none" stroke="black" points="46.2,-138.6 46.2,-169.4 391.14,-169.4 391.14,-138.6 46.2,-138.6"/>
<text text-anchor="start" x="53.2" y="-150.8" font-family="Arial" font-size="14.00">last_logged_in_at </text>
<text text-anchor="start" x="166.85" y="-150.8" font-family="Arial" font-size="14.00" fill="#666666">[timestamp with time zone]</text>
<polygon fill="none" stroke="black" points="46.2,-107.8 46.2,-138.6 391.14,-138.6 391.14,-107.8 46.2,-107.8"/>
<text text-anchor="start" x="53.2" y="-120" font-family="Arial" font-size="14.00">created_at </text>
<text text-anchor="start" x="123.25" y="-120" font-family="Arial" font-size="14.00" fill="#666666">[timestamp with time zone]</text>
<polygon fill="none" stroke="black" points="46.2,-77 46.2,-107.8 391.14,-107.8 391.14,-77 46.2,-77"/>
<text text-anchor="start" x="53.2" y="-89.2" font-family="Arial" font-size="14.00">updated_at </text>
<text text-anchor="start" x="127.16" y="-89.2" font-family="Arial" font-size="14.00" fill="#666666">[timestamp with time zone]</text>
<polygon fill="none" stroke="black" points="46.2,-46.2 46.2,-77 391.14,-77 391.14,-46.2 46.2,-46.2"/>
<text text-anchor="start" x="53.2" y="-58.4" font-family="Arial" font-size="14.00">public_id </text>
<text text-anchor="start" x="112.35" y="-58.4" font-family="Arial" font-size="14.00" fill="#666666">[uuid]</text>
<polygon fill="none" stroke="black" stroke-width="3" points="44.7,-44.7 44.7,-298.9 392.64,-298.9 392.64,-44.7 44.7,-44.7"/>
</g>
<!-- public.m_refresh_token -->
<g id="node2" class="node">
<title>public.m_refresh_token</title>
<polygon fill="#efefef" stroke="none" points="63.7,-915.6 63.7,-951.2 373.64,-951.2 373.64,-915.6 63.7,-915.6"/>
<polygon fill="none" stroke="black" points="63.7,-915.6 63.7,-951.2 373.64,-951.2 373.64,-915.6 63.7,-915.6"/>
<text text-anchor="start" x="70.7" y="-929" font-family="Arial Bold" font-size="18.00">public.m_refresh_token</text>
<text text-anchor="start" x="242.15" y="-929" font-family="Arial" font-size="14.00">    </text>
<text text-anchor="start" x="273.26" y="-929" font-family="Arial" font-size="14.00" fill="#666666">[BASE TABLE]</text>
<polygon fill="none" stroke="black" points="63.7,-884.8 63.7,-915.6 373.64,-915.6 373.64,-884.8 63.7,-884.8"/>
<text text-anchor="start" x="70.7" y="-897" font-family="Arial" font-size="14.00">m_refresh_token_id </text>
<text text-anchor="start" x="198.33" y="-897" font-family="Arial" font-size="14.00" fill="#666666">[bigint]</text>
<polygon fill="none" stroke="black" points="63.7,-854 63.7,-884.8 373.64,-884.8 373.64,-854 63.7,-854"/>
<text text-anchor="start" x="70.7" y="-866.2" font-family="Arial" font-size="14.00">m_user_authorization_id </text>
<text text-anchor="start" x="227.91" y="-866.2" font-family="Arial" font-size="14.00" fill="#666666">[bigint]</text>
<polygon fill="none" stroke="black" points="63.7,-823.2 63.7,-854 373.64,-854 373.64,-823.2 63.7,-823.2"/>
<text text-anchor="start" x="70.7" y="-835.4" font-family="Arial" font-size="14.00">token_hash </text>
<text text-anchor="start" x="146.98" y="-835.4" font-family="Arial" font-size="14.00" fill="#666666">[varchar(256)]</text>
<polygon fill="none" stroke="black" points="63.7,-792.4 63.7,-823.2 373.64,-823.2 373.64,-792.4 63.7,-792.4"/>
<text text-anchor="start" x="70.7" y="-804.6" font-family="Arial" font-size="14.00">generation </text>
<text text-anchor="start" x="140.75" y="-804.6" font-family="Arial" font-size="14.00" fill="#666666">[integer]</text>
<polygon fill="none" stroke="black" points="63.7,-761.6 63.7,-792.4 373.64,-792.4 373.64,-761.6 63.7,-761.6"/>
<text text-anchor="start" x="70.7" y="-773.8" font-family="Arial" font-size="14.00">ip_address </text>
<text text-anchor="start" x="143.08" y="-773.8" font-family="Arial" font-size="14.00" fill="#666666">[varchar(64)]</text>
<polygon fill="none" stroke="black" points="63.7,-730.8 63.7,-761.6 373.64,-761.6 373.64,-730.8 63.7,-730.8"/>
<text text-anchor="start" x="70.7" y="-743" font-family="Arial" font-size="14.00">device_fingerprint </text>
<text text-anchor="start" x="185.1" y="-743" font-family="Arial" font-size="14.00" fill="#666666">[varchar(32)]</text>
<polygon fill="none" stroke="black" points="63.7,-700 63.7,-730.8 373.64,-730.8 373.64,-700 63.7,-700"/>
<text text-anchor="start" x="70.7" y="-712.2" font-family="Arial" font-size="14.00">user_agent </text>
<text text-anchor="start" x="144.64" y="-712.2" font-family="Arial" font-size="14.00" fill="#666666">[varchar(512)]</text>
<polygon fill="none" stroke="black" points="63.7,-669.2 63.7,-700 373.64,-700 373.64,-669.2 63.7,-669.2"/>
<text text-anchor="start" x="70.7" y="-681.4" font-family="Arial" font-size="14.00">country_code </text>
<text text-anchor="start" x="158.64" y="-681.4" font-family="Arial" font-size="14.00" fill="#666666">[varchar(2)]</text>
<polygon fill="none" stroke="black" points="63.7,-638.4 63.7,-669.2 373.64,-669.2 373.64,-638.4 63.7,-638.4"/>
<text text-anchor="start" x="70.7" y="-650.6" font-family="Arial" font-size="14.00">city_name </text>
<text text-anchor="start" x="138.4" y="-650.6" font-family="Arial" font-size="14.00" fill="#666666">[varchar(128)]</text>
<polygon fill="none" stroke="black" points="63.7,-607.6 63.7,-638.4 373.64,-638.4 373.64,-607.6 63.7,-607.6"/>
<text text-anchor="start" x="70.7" y="-619.8" font-family="Arial" font-size="14.00">browser_name </text>
<text text-anchor="start" x="167.19" y="-619.8" font-family="Arial" font-size="14.00" fill="#666666">[varchar(64)]</text>
<polygon fill="none" stroke="black" points="63.7,-576.8 63.7,-607.6 373.64,-607.6 373.64,-576.8 63.7,-576.8"/>
<text text-anchor="start" x="70.7" y="-589" font-family="Arial" font-size="14.00">device_type </text>
<text text-anchor="start" x="149.31" y="-589" font-family="Arial" font-size="14.00" fill="#666666">[varchar(32)]</text>
<polygon fill="none" stroke="black" points="63.7,-546 63.7,-576.8 373.64,-576.8 373.64,-546 63.7,-546"/>
<text text-anchor="start" x="70.7" y="-558.2" font-family="Arial" font-size="14.00">expires_at </text>
<text text-anchor="start" x="139.18" y="-558.2" font-family="Arial" font-size="14.00" fill="#666666">[timestamp with time zone]</text>
<polygon fill="none" stroke="black" points="63.7,-515.2 63.7,-546 373.64,-546 373.64,-515.2 63.7,-515.2"/>
<text text-anchor="start" x="70.7" y="-527.4" font-family="Arial" font-size="14.00">created_at </text>
<text text-anchor="start" x="140.75" y="-527.4" font-family="Arial" font-size="14.00" fill="#666666">[timestamp with time zone]</text>
<polygon fill="none" stroke="black" points="63.7,-484.4 63.7,-515.2 373.64,-515.2 373.64,-484.4 63.7,-484.4"/>
<text text-anchor="start" x="70.7" y="-496.6" font-family="Arial" font-size="14.00">updated_at </text>
<text text-anchor="start" x="144.66" y="-496.6" font-family="Arial" font-size="14.00" fill="#666666">[timestamp with time zone]</text>
<polygon fill="none" stroke="black" points="63.7,-453.6 63.7,-484.4 373.64,-484.4 373.64,-453.6 63.7,-453.6"/>
<text text-anchor="start" x="70.7" y="-465.8" font-family="Arial" font-size="14.00">public_id </text>
<text text-anchor="start" x="129.85" y="-465.8" font-family="Arial" font-size="14.00" fill="#666666">[uuid]</text>
<polygon fill="none" stroke="black" points="63.7,-422.8 63.7,-453.6 373.64,-453.6 373.64,-422.8 63.7,-422.8"/>
<text text-anchor="start" x="70.7" y="-435" font-family="Arial" font-size="14.00">access_token_hash </text>
<text text-anchor="start" x="198.34" y="-435" font-family="Arial" font-size="14.00" fill="#666666">[varchar(256)]</text>
</g>
<!-- public.m_refresh_token&#45;&gt;public.m_user_authorization -->
<g id="edge1" class="edge">
<title>public.m_refresh_token:m_user_authorization_id&#45;&gt;public.m_user_authorization:m_user_authorization_id</title>
<path fill="none" stroke="black" d="M384.03,-865.42C445.34,-812.36 458.14,-246.4 392.14,-246.4"/>
<polygon fill="black" stroke="black" points="384.15,-865.37 373.19,-865.13 379.24,-867.45 375.25,-869.14 375.25,-869.14 375.25,-869.14 379.24,-867.45 376.7,-873.41 384.15,-865.37"/>
<text text-anchor="start" x="381.64" y="-879.4" font-family="Arial" font-size="10.00">FOREIGN KEY (m_user_authorization_id) REFERENCES m_user_authorization(m_user_authorization_id) ON DELETE CASCADE</text>
</g>
</g>
</svg>
