<?xml version="1.0" encoding="UTF-8" standalone="no"?>
<!DOCTYPE svg PUBLIC "-//W3C//DTD SVG 1.1//EN"
 "http://www.w3.org/Graphics/SVG/1.1/DTD/svg11.dtd">
<!-- Generated by graphviz version 12.1.2 (20240928.0832)
 -->
<!-- Title: public.m_refresh_token Pages: 1 -->
<svg width="978pt" height="1064pt"
 viewBox="0.00 0.00 977.75 1064.00" xmlns="http://www.w3.org/2000/svg" xmlns:xlink="http://www.w3.org/1999/xlink">
<g id="graph0" class="graph" transform="scale(1 1) rotate(0) translate(4 1060)">
<title>public.m_refresh_token</title>
<polygon fill="white" stroke="none" points="-4,4 -4,-1060 973.75,-1060 973.75,4 -4,4"/>
<!-- public.m_refresh_token -->
<g id="node1" class="node">
<title>public.m_refresh_token</title>
<polygon fill="#efefef" stroke="none" points="60.7,-974.2 60.7,-1009.8 370.64,-1009.8 370.64,-974.2 60.7,-974.2"/>
<polygon fill="none" stroke="black" points="60.7,-974.2 60.7,-1009.8 370.64,-1009.8 370.64,-974.2 60.7,-974.2"/>
<text text-anchor="start" x="67.7" y="-987.6" font-family="Arial Bold" font-size="18.00">public.m_refresh_token</text>
<text text-anchor="start" x="239.15" y="-987.6" font-family="Arial" font-size="14.00">    </text>
<text text-anchor="start" x="270.26" y="-987.6" font-family="Arial" font-size="14.00" fill="#666666">[BASE TABLE]</text>
<polygon fill="none" stroke="black" points="60.7,-943.4 60.7,-974.2 370.64,-974.2 370.64,-943.4 60.7,-943.4"/>
<text text-anchor="start" x="67.7" y="-955.6" font-family="Arial" font-size="14.00">m_refresh_token_id </text>
<text text-anchor="start" x="195.33" y="-955.6" font-family="Arial" font-size="14.00" fill="#666666">[bigint]</text>
<polygon fill="none" stroke="black" points="60.7,-912.6 60.7,-943.4 370.64,-943.4 370.64,-912.6 60.7,-912.6"/>
<text text-anchor="start" x="67.7" y="-924.8" font-family="Arial" font-size="14.00">m_user_authorization_id </text>
<text text-anchor="start" x="224.91" y="-924.8" font-family="Arial" font-size="14.00" fill="#666666">[bigint]</text>
<polygon fill="none" stroke="black" points="60.7,-881.8 60.7,-912.6 370.64,-912.6 370.64,-881.8 60.7,-881.8"/>
<text text-anchor="start" x="67.7" y="-894" font-family="Arial" font-size="14.00">token_hash </text>
<text text-anchor="start" x="143.98" y="-894" font-family="Arial" font-size="14.00" fill="#666666">[varchar(256)]</text>
<polygon fill="none" stroke="black" points="60.7,-851 60.7,-881.8 370.64,-881.8 370.64,-851 60.7,-851"/>
<text text-anchor="start" x="67.7" y="-863.2" font-family="Arial" font-size="14.00">generation </text>
<text text-anchor="start" x="137.75" y="-863.2" font-family="Arial" font-size="14.00" fill="#666666">[integer]</text>
<polygon fill="none" stroke="black" points="60.7,-820.2 60.7,-851 370.64,-851 370.64,-820.2 60.7,-820.2"/>
<text text-anchor="start" x="67.7" y="-832.4" font-family="Arial" font-size="14.00">ip_address </text>
<text text-anchor="start" x="140.08" y="-832.4" font-family="Arial" font-size="14.00" fill="#666666">[varchar(64)]</text>
<polygon fill="none" stroke="black" points="60.7,-789.4 60.7,-820.2 370.64,-820.2 370.64,-789.4 60.7,-789.4"/>
<text text-anchor="start" x="67.7" y="-801.6" font-family="Arial" font-size="14.00">device_fingerprint </text>
<text text-anchor="start" x="182.1" y="-801.6" font-family="Arial" font-size="14.00" fill="#666666">[varchar(32)]</text>
<polygon fill="none" stroke="black" points="60.7,-758.6 60.7,-789.4 370.64,-789.4 370.64,-758.6 60.7,-758.6"/>
<text text-anchor="start" x="67.7" y="-770.8" font-family="Arial" font-size="14.00">user_agent </text>
<text text-anchor="start" x="141.64" y="-770.8" font-family="Arial" font-size="14.00" fill="#666666">[varchar(512)]</text>
<polygon fill="none" stroke="black" points="60.7,-727.8 60.7,-758.6 370.64,-758.6 370.64,-727.8 60.7,-727.8"/>
<text text-anchor="start" x="67.7" y="-740" font-family="Arial" font-size="14.00">country_code </text>
<text text-anchor="start" x="155.64" y="-740" font-family="Arial" font-size="14.00" fill="#666666">[varchar(2)]</text>
<polygon fill="none" stroke="black" points="60.7,-697 60.7,-727.8 370.64,-727.8 370.64,-697 60.7,-697"/>
<text text-anchor="start" x="67.7" y="-709.2" font-family="Arial" font-size="14.00">city_name </text>
<text text-anchor="start" x="135.4" y="-709.2" font-family="Arial" font-size="14.00" fill="#666666">[varchar(128)]</text>
<polygon fill="none" stroke="black" points="60.7,-666.2 60.7,-697 370.64,-697 370.64,-666.2 60.7,-666.2"/>
<text text-anchor="start" x="67.7" y="-678.4" font-family="Arial" font-size="14.00">browser_name </text>
<text text-anchor="start" x="164.19" y="-678.4" font-family="Arial" font-size="14.00" fill="#666666">[varchar(64)]</text>
<polygon fill="none" stroke="black" points="60.7,-635.4 60.7,-666.2 370.64,-666.2 370.64,-635.4 60.7,-635.4"/>
<text text-anchor="start" x="67.7" y="-647.6" font-family="Arial" font-size="14.00">device_type </text>
<text text-anchor="start" x="146.31" y="-647.6" font-family="Arial" font-size="14.00" fill="#666666">[varchar(32)]</text>
<polygon fill="none" stroke="black" points="60.7,-604.6 60.7,-635.4 370.64,-635.4 370.64,-604.6 60.7,-604.6"/>
<text text-anchor="start" x="67.7" y="-616.8" font-family="Arial" font-size="14.00">expires_at </text>
<text text-anchor="start" x="136.18" y="-616.8" font-family="Arial" font-size="14.00" fill="#666666">[timestamp with time zone]</text>
<polygon fill="none" stroke="black" points="60.7,-573.8 60.7,-604.6 370.64,-604.6 370.64,-573.8 60.7,-573.8"/>
<text text-anchor="start" x="67.7" y="-586" font-family="Arial" font-size="14.00">created_at </text>
<text text-anchor="start" x="137.75" y="-586" font-family="Arial" font-size="14.00" fill="#666666">[timestamp with time zone]</text>
<polygon fill="none" stroke="black" points="60.7,-543 60.7,-573.8 370.64,-573.8 370.64,-543 60.7,-543"/>
<text text-anchor="start" x="67.7" y="-555.2" font-family="Arial" font-size="14.00">updated_at </text>
<text text-anchor="start" x="141.66" y="-555.2" font-family="Arial" font-size="14.00" fill="#666666">[timestamp with time zone]</text>
<polygon fill="none" stroke="black" points="60.7,-512.2 60.7,-543 370.64,-543 370.64,-512.2 60.7,-512.2"/>
<text text-anchor="start" x="67.7" y="-524.4" font-family="Arial" font-size="14.00">public_id </text>
<text text-anchor="start" x="126.85" y="-524.4" font-family="Arial" font-size="14.00" fill="#666666">[uuid]</text>
<polygon fill="none" stroke="black" points="60.7,-481.4 60.7,-512.2 370.64,-512.2 370.64,-481.4 60.7,-481.4"/>
<text text-anchor="start" x="67.7" y="-493.6" font-family="Arial" font-size="14.00">access_token_jti </text>
<text text-anchor="start" x="175.09" y="-493.6" font-family="Arial" font-size="14.00" fill="#666666">[uuid]</text>
<polygon fill="none" stroke="black" points="60.7,-450.6 60.7,-481.4 370.64,-481.4 370.64,-450.6 60.7,-450.6"/>
<text text-anchor="start" x="67.7" y="-462.8" font-family="Arial" font-size="14.00">activated_at </text>
<text text-anchor="start" x="147.08" y="-462.8" font-family="Arial" font-size="14.00" fill="#666666">[timestamp with time zone]</text>
<polygon fill="none" stroke="black" points="60.7,-419.8 60.7,-450.6 370.64,-450.6 370.64,-419.8 60.7,-419.8"/>
<text text-anchor="start" x="67.7" y="-432" font-family="Arial" font-size="14.00">last_logged_in_at </text>
<text text-anchor="start" x="181.35" y="-432" font-family="Arial" font-size="14.00" fill="#666666">[timestamp with time zone]</text>
<polygon fill="none" stroke="black" stroke-width="3" points="59.2,-418.3 59.2,-1011.3 372.14,-1011.3 372.14,-418.3 59.2,-418.3"/>
</g>
<!-- public.m_user_authorization -->
<g id="node2" class="node">
<title>public.m_user_authorization</title>
<polygon fill="#efefef" stroke="none" points="43.2,-258.8 43.2,-294.4 388.14,-294.4 388.14,-258.8 43.2,-258.8"/>
<polygon fill="none" stroke="black" points="43.2,-258.8 43.2,-294.4 388.14,-294.4 388.14,-258.8 43.2,-258.8"/>
<text text-anchor="start" x="50.2" y="-272.2" font-family="Arial Bold" font-size="18.00">public.m_user_authorization</text>
<text text-anchor="start" x="256.65" y="-272.2" font-family="Arial" font-size="14.00">    </text>
<text text-anchor="start" x="287.76" y="-272.2" font-family="Arial" font-size="14.00" fill="#666666">[BASE TABLE]</text>
<polygon fill="none" stroke="black" points="43.2,-228 43.2,-258.8 388.14,-258.8 388.14,-228 43.2,-228"/>
<text text-anchor="start" x="50.2" y="-240.2" font-family="Arial" font-size="14.00">m_user_authorization_id </text>
<text text-anchor="start" x="207.41" y="-240.2" font-family="Arial" font-size="14.00" fill="#666666">[bigint]</text>
<polygon fill="none" stroke="black" points="43.2,-197.2 43.2,-228 388.14,-228 388.14,-197.2 43.2,-197.2"/>
<text text-anchor="start" x="50.2" y="-209.4" font-family="Arial" font-size="14.00">issuer </text>
<text text-anchor="start" x="91.43" y="-209.4" font-family="Arial" font-size="14.00" fill="#666666">[varchar(256)]</text>
<polygon fill="none" stroke="black" points="43.2,-166.4 43.2,-197.2 388.14,-197.2 388.14,-166.4 43.2,-166.4"/>
<text text-anchor="start" x="50.2" y="-178.6" font-family="Arial" font-size="14.00">sub </text>
<text text-anchor="start" x="76.66" y="-178.6" font-family="Arial" font-size="14.00" fill="#666666">[varchar(256)]</text>
<polygon fill="none" stroke="black" points="43.2,-135.6 43.2,-166.4 388.14,-166.4 388.14,-135.6 43.2,-135.6"/>
<text text-anchor="start" x="50.2" y="-147.8" font-family="Arial" font-size="14.00">last_logged_in_at </text>
<text text-anchor="start" x="163.85" y="-147.8" font-family="Arial" font-size="14.00" fill="#666666">[timestamp with time zone]</text>
<polygon fill="none" stroke="black" points="43.2,-104.8 43.2,-135.6 388.14,-135.6 388.14,-104.8 43.2,-104.8"/>
<text text-anchor="start" x="50.2" y="-117" font-family="Arial" font-size="14.00">created_at </text>
<text text-anchor="start" x="120.25" y="-117" font-family="Arial" font-size="14.00" fill="#666666">[timestamp with time zone]</text>
<polygon fill="none" stroke="black" points="43.2,-74 43.2,-104.8 388.14,-104.8 388.14,-74 43.2,-74"/>
<text text-anchor="start" x="50.2" y="-86.2" font-family="Arial" font-size="14.00">updated_at </text>
<text text-anchor="start" x="124.16" y="-86.2" font-family="Arial" font-size="14.00" fill="#666666">[timestamp with time zone]</text>
<polygon fill="none" stroke="black" points="43.2,-43.2 43.2,-74 388.14,-74 388.14,-43.2 43.2,-43.2"/>
<text text-anchor="start" x="50.2" y="-55.4" font-family="Arial" font-size="14.00">public_id </text>
<text text-anchor="start" x="109.35" y="-55.4" font-family="Arial" font-size="14.00" fill="#666666">[uuid]</text>
</g>
<!-- public.m_refresh_token&#45;&gt;public.m_user_authorization -->
<g id="edge1" class="edge">
<title>public.m_refresh_token:m_user_authorization_id&#45;&gt;public.m_user_authorization:m_user_authorization_id</title>
<path fill="none" stroke="black" d="M381.12,-924.32C449.06,-870.43 461.96,-243.4 389.14,-243.4"/>
<polygon fill="black" stroke="black" points="381.27,-924.26 370.32,-923.68 376.3,-926.19 372.26,-927.76 372.26,-927.76 372.26,-927.76 376.3,-926.19 373.58,-932.07 381.27,-924.26"/>
<text text-anchor="start" x="378.64" y="-938" font-family="Arial" font-size="10.00">FOREIGN KEY (m_user_authorization_id) REFERENCES m_user_authorization(m_user_authorization_id) ON DELETE CASCADE</text>
</g>
</g>
</svg>
