<?xml version="1.0" encoding="UTF-8" standalone="no"?>
<!DOCTYPE svg PUBLIC "-//W3C//DTD SVG 1.1//EN"
 "http://www.w3.org/Graphics/SVG/1.1/DTD/svg11.dtd">
<!-- Generated by graphviz version 12.1.2 (20240928.0832)
 -->
<!-- Title: public.m_playlist Pages: 1 -->
<svg width="808pt" height="787pt"
 viewBox="0.00 0.00 808.16 786.80" xmlns="http://www.w3.org/2000/svg" xmlns:xlink="http://www.w3.org/1999/xlink">
<g id="graph0" class="graph" transform="scale(1 1) rotate(0) translate(4 782.8)">
<title>public.m_playlist</title>
<polygon fill="white" stroke="none" points="-4,4 -4,-782.8 804.16,-782.8 804.16,4 -4,4"/>
<!-- public.m_playlist -->
<g id="node1" class="node">
<title>public.m_playlist</title>
<polygon fill="#efefef" stroke="none" points="67.7,-354.2 67.7,-389.8 331.67,-389.8 331.67,-354.2 67.7,-354.2"/>
<polygon fill="none" stroke="black" points="67.7,-354.2 67.7,-389.8 331.67,-389.8 331.67,-354.2 67.7,-354.2"/>
<text text-anchor="start" x="74.7" y="-367.6" font-family="Arial Bold" font-size="18.00">public.m_playlist</text>
<text text-anchor="start" x="200.19" y="-367.6" font-family="Arial" font-size="14.00">    </text>
<text text-anchor="start" x="231.3" y="-367.6" font-family="Arial" font-size="14.00" fill="#666666">[BASE TABLE]</text>
<polygon fill="none" stroke="black" points="67.7,-323.4 67.7,-354.2 331.67,-354.2 331.67,-323.4 67.7,-323.4"/>
<text text-anchor="start" x="74.7" y="-335.6" font-family="Arial" font-size="14.00">m_playlist_id </text>
<text text-anchor="start" x="159.51" y="-335.6" font-family="Arial" font-size="14.00" fill="#666666">[bigint]</text>
<polygon fill="none" stroke="black" points="67.7,-292.6 67.7,-323.4 331.67,-323.4 331.67,-292.6 67.7,-292.6"/>
<text text-anchor="start" x="74.7" y="-304.8" font-family="Arial" font-size="14.00">m_user_id </text>
<text text-anchor="start" x="143.95" y="-304.8" font-family="Arial" font-size="14.00" fill="#666666">[bigint]</text>
<polygon fill="none" stroke="black" points="67.7,-261.8 67.7,-292.6 331.67,-292.6 331.67,-261.8 67.7,-261.8"/>
<text text-anchor="start" x="74.7" y="-274" font-family="Arial" font-size="14.00">visibility_code </text>
<text text-anchor="start" x="164.96" y="-274" font-family="Arial" font-size="14.00" fill="#666666">[integer]</text>
<polygon fill="none" stroke="black" points="67.7,-231 67.7,-261.8 331.67,-261.8 331.67,-231 67.7,-231"/>
<text text-anchor="start" x="74.7" y="-243.2" font-family="Arial" font-size="14.00">playlist_title </text>
<text text-anchor="start" x="150.95" y="-243.2" font-family="Arial" font-size="14.00" fill="#666666">[varchar(128)]</text>
<polygon fill="none" stroke="black" points="67.7,-200.2 67.7,-231 331.67,-231 331.67,-200.2 67.7,-200.2"/>
<text text-anchor="start" x="74.7" y="-212.4" font-family="Arial" font-size="14.00">playlist_code </text>
<text text-anchor="start" x="159.52" y="-212.4" font-family="Arial" font-size="14.00" fill="#666666">[integer]</text>
<polygon fill="none" stroke="black" points="67.7,-169.4 67.7,-200.2 331.67,-200.2 331.67,-169.4 67.7,-169.4"/>
<text text-anchor="start" x="74.7" y="-181.6" font-family="Arial" font-size="14.00">video_count </text>
<text text-anchor="start" x="154.09" y="-181.6" font-family="Arial" font-size="14.00" fill="#666666">[integer]</text>
<polygon fill="none" stroke="black" points="67.7,-138.6 67.7,-169.4 331.67,-169.4 331.67,-138.6 67.7,-138.6"/>
<text text-anchor="start" x="74.7" y="-150.8" font-family="Arial" font-size="14.00">created_at </text>
<text text-anchor="start" x="144.74" y="-150.8" font-family="Arial" font-size="14.00" fill="#666666">[timestamp with time zone]</text>
<polygon fill="none" stroke="black" points="67.7,-107.8 67.7,-138.6 331.67,-138.6 331.67,-107.8 67.7,-107.8"/>
<text text-anchor="start" x="74.7" y="-120" font-family="Arial" font-size="14.00">updated_at </text>
<text text-anchor="start" x="148.65" y="-120" font-family="Arial" font-size="14.00" fill="#666666">[timestamp with time zone]</text>
<polygon fill="none" stroke="black" points="67.7,-77 67.7,-107.8 331.67,-107.8 331.67,-77 67.7,-77"/>
<text text-anchor="start" x="74.7" y="-89.2" font-family="Arial" font-size="14.00">public_id </text>
<text text-anchor="start" x="133.85" y="-89.2" font-family="Arial" font-size="14.00" fill="#666666">[uuid]</text>
<polygon fill="none" stroke="black" points="67.7,-46.2 67.7,-77 331.67,-77 331.67,-46.2 67.7,-46.2"/>
<text text-anchor="start" x="74.7" y="-58.4" font-family="Arial" font-size="14.00">playlist_description </text>
<text text-anchor="start" x="196.87" y="-58.4" font-family="Arial" font-size="14.00" fill="#666666">[varchar(255)]</text>
<polygon fill="none" stroke="black" stroke-width="3" points="66.2,-44.7 66.2,-391.3 333.17,-391.3 333.17,-44.7 66.2,-44.7"/>
</g>
<!-- public.m_playlist_video -->
<g id="node2" class="node">
<title>public.m_playlist_video</title>
<polygon fill="#efefef" stroke="none" points="43.2,-700 43.2,-735.6 356.17,-735.6 356.17,-700 43.2,-700"/>
<polygon fill="none" stroke="black" points="43.2,-700 43.2,-735.6 356.17,-735.6 356.17,-700 43.2,-700"/>
<text text-anchor="start" x="50.2" y="-713.4" font-family="Arial Bold" font-size="18.00">public.m_playlist_video</text>
<text text-anchor="start" x="224.68" y="-713.4" font-family="Arial" font-size="14.00">    </text>
<text text-anchor="start" x="255.8" y="-713.4" font-family="Arial" font-size="14.00" fill="#666666">[BASE TABLE]</text>
<polygon fill="none" stroke="black" points="43.2,-669.2 43.2,-700 356.17,-700 356.17,-669.2 43.2,-669.2"/>
<text text-anchor="start" x="50.2" y="-681.4" font-family="Arial" font-size="14.00">m_playlist_video_id </text>
<text text-anchor="start" x="176.27" y="-681.4" font-family="Arial" font-size="14.00" fill="#666666">[bigint]</text>
<polygon fill="none" stroke="black" points="43.2,-638.4 43.2,-669.2 356.17,-669.2 356.17,-638.4 43.2,-638.4"/>
<text text-anchor="start" x="50.2" y="-650.6" font-family="Arial" font-size="14.00">m_playlist_id </text>
<text text-anchor="start" x="135.01" y="-650.6" font-family="Arial" font-size="14.00" fill="#666666">[bigint]</text>
<polygon fill="none" stroke="black" points="43.2,-607.6 43.2,-638.4 356.17,-638.4 356.17,-607.6 43.2,-607.6"/>
<text text-anchor="start" x="50.2" y="-619.8" font-family="Arial" font-size="14.00">m_video_id </text>
<text text-anchor="start" x="125.69" y="-619.8" font-family="Arial" font-size="14.00" fill="#666666">[bigint]</text>
<polygon fill="none" stroke="black" points="43.2,-576.8 43.2,-607.6 356.17,-607.6 356.17,-576.8 43.2,-576.8"/>
<text text-anchor="start" x="50.2" y="-589" font-family="Arial" font-size="14.00">playlist_position </text>
<text text-anchor="start" x="152.92" y="-589" font-family="Arial" font-size="14.00" fill="#666666">[bigint]</text>
<polygon fill="none" stroke="black" points="43.2,-546 43.2,-576.8 356.17,-576.8 356.17,-546 43.2,-546"/>
<text text-anchor="start" x="50.2" y="-558.2" font-family="Arial" font-size="14.00">created_at </text>
<text text-anchor="start" x="120.25" y="-558.2" font-family="Arial" font-size="14.00" fill="#666666">[timestamp with time zone]</text>
<polygon fill="none" stroke="black" points="43.2,-515.2 43.2,-546 356.17,-546 356.17,-515.2 43.2,-515.2"/>
<text text-anchor="start" x="50.2" y="-527.4" font-family="Arial" font-size="14.00">updated_at </text>
<text text-anchor="start" x="124.16" y="-527.4" font-family="Arial" font-size="14.00" fill="#666666">[timestamp with time zone]</text>
</g>
<!-- public.m_playlist_video&#45;&gt;public.m_playlist -->
<g id="edge1" class="edge">
<title>public.m_playlist_video:m_playlist_id&#45;&gt;public.m_playlist:m_playlist_id</title>
<path fill="none" stroke="black" d="M367.14,-651.45C424.78,-622.62 399.32,-338.8 332.67,-338.8"/>
<polygon fill="black" stroke="black" points="367.23,-651.42 356.46,-649.34 362.04,-652.65 357.82,-653.65 357.82,-653.65 357.82,-653.65 362.04,-652.65 358.53,-658.1 367.23,-651.42"/>
<text text-anchor="start" x="364.17" y="-663.8" font-family="Arial" font-size="10.00">FOREIGN KEY (m_playlist_id) REFERENCES m_playlist(m_playlist_id) ON DELETE CASCADE</text>
</g>
</g>
</svg>
