<?xml version="1.0" encoding="UTF-8" standalone="no"?>
<!DOCTYPE svg PUBLIC "-//W3C//DTD SVG 1.1//EN"
 "http://www.w3.org/Graphics/SVG/1.1/DTD/svg11.dtd">
<!-- Generated by graphviz version 12.1.2 (20240928.0832)
 -->
<!-- Title: public.goose_db_version Pages: 1 -->
<svg width="419pt" height="259pt"
 viewBox="0.00 0.00 419.36 259.20" xmlns="http://www.w3.org/2000/svg" xmlns:xlink="http://www.w3.org/1999/xlink">
<g id="graph0" class="graph" transform="scale(1 1) rotate(0) translate(4 255.2)">
<title>public.goose_db_version</title>
<polygon fill="white" stroke="none" points="-4,4 -4,-255.2 415.36,-255.2 415.36,4 -4,4"/>
<!-- public.goose_db_version -->
<g id="node1" class="node">
<title>public.goose_db_version</title>
<polygon fill="#efefef" stroke="none" points="46.2,-169.4 46.2,-205 365.16,-205 365.16,-169.4 46.2,-169.4"/>
<polygon fill="none" stroke="black" points="46.2,-169.4 46.2,-205 365.16,-205 365.16,-169.4 46.2,-169.4"/>
<text text-anchor="start" x="53.2" y="-182.8" font-family="Arial Bold" font-size="18.00">public.goose_db_version</text>
<text text-anchor="start" x="233.67" y="-182.8" font-family="Arial" font-size="14.00">    </text>
<text text-anchor="start" x="264.79" y="-182.8" font-family="Arial" font-size="14.00" fill="#666666">[BASE TABLE]</text>
<polygon fill="none" stroke="black" points="46.2,-138.6 46.2,-169.4 365.16,-169.4 365.16,-138.6 46.2,-138.6"/>
<text text-anchor="start" x="53.2" y="-150.8" font-family="Arial" font-size="14.00">id </text>
<text text-anchor="start" x="67.99" y="-150.8" font-family="Arial" font-size="14.00" fill="#666666">[integer]</text>
<polygon fill="none" stroke="black" points="46.2,-107.8 46.2,-138.6 365.16,-138.6 365.16,-107.8 46.2,-107.8"/>
<text text-anchor="start" x="53.2" y="-120" font-family="Arial" font-size="14.00">version_id </text>
<text text-anchor="start" x="120.9" y="-120" font-family="Arial" font-size="14.00" fill="#666666">[bigint]</text>
<polygon fill="none" stroke="black" points="46.2,-77 46.2,-107.8 365.16,-107.8 365.16,-77 46.2,-77"/>
<text text-anchor="start" x="53.2" y="-89.2" font-family="Arial" font-size="14.00">is_applied </text>
<text text-anchor="start" x="120.14" y="-89.2" font-family="Arial" font-size="14.00" fill="#666666">[boolean]</text>
<polygon fill="none" stroke="black" points="46.2,-46.2 46.2,-77 365.16,-77 365.16,-46.2 46.2,-46.2"/>
<text text-anchor="start" x="53.2" y="-58.4" font-family="Arial" font-size="14.00">tstamp </text>
<text text-anchor="start" x="99.1" y="-58.4" font-family="Arial" font-size="14.00" fill="#666666">[timestamp without time zone]</text>
<polygon fill="none" stroke="black" stroke-width="3" points="44.7,-44.7 44.7,-206.5 366.66,-206.5 366.66,-44.7 44.7,-44.7"/>
</g>
</g>
</svg>
