<?xml version="1.0" encoding="UTF-8" standalone="no"?>
<!DOCTYPE svg PUBLIC "-//W3C//DTD SVG 1.1//EN"
 "http://www.w3.org/Graphics/SVG/1.1/DTD/svg11.dtd">
<!-- Generated by graphviz version 12.1.2 (20240928.0832)
 -->
<!-- Title: public.m_playlist_video Pages: 1 -->
<svg width="811pt" height="848pt"
 viewBox="0.00 0.00 811.16 848.40" xmlns="http://www.w3.org/2000/svg" xmlns:xlink="http://www.w3.org/1999/xlink">
<g id="graph0" class="graph" transform="scale(1 1) rotate(0) translate(4 844.4)">
<title>public.m_playlist_video</title>
<polygon fill="white" stroke="none" points="-4,4 -4,-844.4 807.16,-844.4 807.16,4 -4,4"/>
<!-- public.m_playlist_video -->
<g id="node1" class="node">
<title>public.m_playlist_video</title>
<polygon fill="#efefef" stroke="none" points="46.2,-758.6 46.2,-794.2 359.17,-794.2 359.17,-758.6 46.2,-758.6"/>
<polygon fill="none" stroke="black" points="46.2,-758.6 46.2,-794.2 359.17,-794.2 359.17,-758.6 46.2,-758.6"/>
<text text-anchor="start" x="53.2" y="-772" font-family="Arial Bold" font-size="18.00">public.m_playlist_video</text>
<text text-anchor="start" x="227.68" y="-772" font-family="Arial" font-size="14.00">    </text>
<text text-anchor="start" x="258.8" y="-772" font-family="Arial" font-size="14.00" fill="#666666">[BASE TABLE]</text>
<polygon fill="none" stroke="black" points="46.2,-727.8 46.2,-758.6 359.17,-758.6 359.17,-727.8 46.2,-727.8"/>
<text text-anchor="start" x="53.2" y="-740" font-family="Arial" font-size="14.00">m_playlist_video_id </text>
<text text-anchor="start" x="179.27" y="-740" font-family="Arial" font-size="14.00" fill="#666666">[bigint]</text>
<polygon fill="none" stroke="black" points="46.2,-697 46.2,-727.8 359.17,-727.8 359.17,-697 46.2,-697"/>
<text text-anchor="start" x="53.2" y="-709.2" font-family="Arial" font-size="14.00">m_playlist_id </text>
<text text-anchor="start" x="138.01" y="-709.2" font-family="Arial" font-size="14.00" fill="#666666">[bigint]</text>
<polygon fill="none" stroke="black" points="46.2,-666.2 46.2,-697 359.17,-697 359.17,-666.2 46.2,-666.2"/>
<text text-anchor="start" x="53.2" y="-678.4" font-family="Arial" font-size="14.00">m_video_id </text>
<text text-anchor="start" x="128.69" y="-678.4" font-family="Arial" font-size="14.00" fill="#666666">[bigint]</text>
<polygon fill="none" stroke="black" points="46.2,-635.4 46.2,-666.2 359.17,-666.2 359.17,-635.4 46.2,-635.4"/>
<text text-anchor="start" x="53.2" y="-647.6" font-family="Arial" font-size="14.00">playlist_position </text>
<text text-anchor="start" x="155.92" y="-647.6" font-family="Arial" font-size="14.00" fill="#666666">[bigint]</text>
<polygon fill="none" stroke="black" points="46.2,-604.6 46.2,-635.4 359.17,-635.4 359.17,-604.6 46.2,-604.6"/>
<text text-anchor="start" x="53.2" y="-616.8" font-family="Arial" font-size="14.00">created_at </text>
<text text-anchor="start" x="123.25" y="-616.8" font-family="Arial" font-size="14.00" fill="#666666">[timestamp with time zone]</text>
<polygon fill="none" stroke="black" points="46.2,-573.8 46.2,-604.6 359.17,-604.6 359.17,-573.8 46.2,-573.8"/>
<text text-anchor="start" x="53.2" y="-586" font-family="Arial" font-size="14.00">updated_at </text>
<text text-anchor="start" x="127.16" y="-586" font-family="Arial" font-size="14.00" fill="#666666">[timestamp with time zone]</text>
<polygon fill="none" stroke="black" stroke-width="3" points="44.7,-572.3 44.7,-795.7 360.67,-795.7 360.67,-572.3 44.7,-572.3"/>
</g>
<!-- public.m_playlist -->
<g id="node2" class="node">
<title>public.m_playlist</title>
<polygon fill="#efefef" stroke="none" points="70.02,-412.8 70.02,-448.4 335.35,-448.4 335.35,-412.8 70.02,-412.8"/>
<polygon fill="none" stroke="black" points="70.02,-412.8 70.02,-448.4 335.35,-448.4 335.35,-412.8 70.02,-412.8"/>
<text text-anchor="start" x="77.7" y="-426.2" font-family="Arial Bold" font-size="18.00">public.m_playlist</text>
<text text-anchor="start" x="203.19" y="-426.2" font-family="Arial" font-size="14.00">    </text>
<text text-anchor="start" x="234.3" y="-426.2" font-family="Arial" font-size="14.00" fill="#666666">[BASE TABLE]</text>
<polygon fill="none" stroke="black" points="70.02,-382 70.02,-412.8 335.35,-412.8 335.35,-382 70.02,-382"/>
<text text-anchor="start" x="77.02" y="-394.2" font-family="Arial" font-size="14.00">m_playlist_id </text>
<text text-anchor="start" x="161.83" y="-394.2" font-family="Arial" font-size="14.00" fill="#666666">[bigint]</text>
<polygon fill="none" stroke="black" points="70.02,-351.2 70.02,-382 335.35,-382 335.35,-351.2 70.02,-351.2"/>
<text text-anchor="start" x="77.02" y="-363.4" font-family="Arial" font-size="14.00">m_user_id </text>
<text text-anchor="start" x="146.27" y="-363.4" font-family="Arial" font-size="14.00" fill="#666666">[bigint]</text>
<polygon fill="none" stroke="black" points="70.02,-320.4 70.02,-351.2 335.35,-351.2 335.35,-320.4 70.02,-320.4"/>
<text text-anchor="start" x="77.02" y="-332.6" font-family="Arial" font-size="14.00">visibility_code </text>
<text text-anchor="start" x="167.28" y="-332.6" font-family="Arial" font-size="14.00" fill="#666666">[integer]</text>
<polygon fill="none" stroke="black" points="70.02,-289.6 70.02,-320.4 335.35,-320.4 335.35,-289.6 70.02,-289.6"/>
<text text-anchor="start" x="77.02" y="-301.8" font-family="Arial" font-size="14.00">playlist_title </text>
<text text-anchor="start" x="153.27" y="-301.8" font-family="Arial" font-size="14.00" fill="#666666">[varchar(128)]</text>
<polygon fill="none" stroke="black" points="70.02,-258.8 70.02,-289.6 335.35,-289.6 335.35,-258.8 70.02,-258.8"/>
<text text-anchor="start" x="77.02" y="-271" font-family="Arial" font-size="14.00">playlist_code </text>
<text text-anchor="start" x="161.85" y="-271" font-family="Arial" font-size="14.00" fill="#666666">[integer]</text>
<polygon fill="none" stroke="black" points="70.02,-228 70.02,-258.8 335.35,-258.8 335.35,-228 70.02,-228"/>
<text text-anchor="start" x="77.02" y="-240.2" font-family="Arial" font-size="14.00">video_count </text>
<text text-anchor="start" x="156.41" y="-240.2" font-family="Arial" font-size="14.00" fill="#666666">[integer]</text>
<polygon fill="none" stroke="black" points="70.02,-197.2 70.02,-228 335.35,-228 335.35,-197.2 70.02,-197.2"/>
<text text-anchor="start" x="77.02" y="-209.4" font-family="Arial" font-size="14.00">created_at </text>
<text text-anchor="start" x="147.07" y="-209.4" font-family="Arial" font-size="14.00" fill="#666666">[timestamp with time zone]</text>
<polygon fill="none" stroke="black" points="70.02,-166.4 70.02,-197.2 335.35,-197.2 335.35,-166.4 70.02,-166.4"/>
<text text-anchor="start" x="77.02" y="-178.6" font-family="Arial" font-size="14.00">updated_at </text>
<text text-anchor="start" x="150.98" y="-178.6" font-family="Arial" font-size="14.00" fill="#666666">[timestamp with time zone]</text>
<polygon fill="none" stroke="black" points="70.02,-135.6 70.02,-166.4 335.35,-166.4 335.35,-135.6 70.02,-135.6"/>
<text text-anchor="start" x="77.02" y="-147.8" font-family="Arial" font-size="14.00">public_id </text>
<text text-anchor="start" x="136.17" y="-147.8" font-family="Arial" font-size="14.00" fill="#666666">[uuid]</text>
<polygon fill="none" stroke="black" points="70.02,-104.8 70.02,-135.6 335.35,-135.6 335.35,-104.8 70.02,-104.8"/>
<text text-anchor="start" x="77.02" y="-117" font-family="Arial" font-size="14.00">playlist_description </text>
<text text-anchor="start" x="199.19" y="-117" font-family="Arial" font-size="14.00" fill="#666666">[varchar(255)]</text>
<polygon fill="none" stroke="black" points="70.02,-74 70.02,-104.8 335.35,-104.8 335.35,-74 70.02,-74"/>
<text text-anchor="start" x="77.02" y="-86.2" font-family="Arial" font-size="14.00">registered_at </text>
<text text-anchor="start" x="162.63" y="-86.2" font-family="Arial" font-size="14.00" fill="#666666">[timestamp with time zone]</text>
<polygon fill="none" stroke="black" points="70.02,-43.2 70.02,-74 335.35,-74 335.35,-43.2 70.02,-43.2"/>
<text text-anchor="start" x="77.02" y="-55.4" font-family="Arial" font-size="14.00">m_channel_id </text>
<text text-anchor="start" x="168.08" y="-55.4" font-family="Arial" font-size="14.00" fill="#666666">[bigint]</text>
</g>
<!-- public.m_playlist_video&#45;&gt;public.m_playlist -->
<g id="edge1" class="edge">
<title>public.m_playlist_video:m_playlist_id&#45;&gt;public.m_playlist:m_playlist_id</title>
<path fill="none" stroke="black" d="M370.14,-710.05C427.83,-681.22 402.98,-397.4 336.35,-397.4"/>
<polygon fill="black" stroke="black" points="370.23,-710.03 359.46,-707.94 365.04,-711.25 360.82,-712.25 360.82,-712.25 360.82,-712.25 365.04,-711.25 361.53,-716.7 370.23,-710.03"/>
<text text-anchor="start" x="367.17" y="-722.4" font-family="Arial" font-size="10.00">FOREIGN KEY (m_playlist_id) REFERENCES m_playlist(m_playlist_id) ON DELETE CASCADE</text>
</g>
</g>
</svg>
