<?xml version="1.0" encoding="UTF-8" standalone="no"?>
<!DOCTYPE svg PUBLIC "-//W3C//DTD SVG 1.1//EN"
 "http://www.w3.org/Graphics/SVG/1.1/DTD/svg11.dtd">
<!-- Generated by graphviz version 12.1.2 (20240928.0832)
 -->
<!-- Title: public.h_search Pages: 1 -->
<svg width="361pt" height="321pt"
 viewBox="0.00 0.00 361.07 320.80" xmlns="http://www.w3.org/2000/svg" xmlns:xlink="http://www.w3.org/1999/xlink">
<g id="graph0" class="graph" transform="scale(1 1) rotate(0) translate(4 316.8)">
<title>public.h_search</title>
<polygon fill="white" stroke="none" points="-4,4 -4,-316.8 357.07,-316.8 357.07,4 -4,4"/>
<!-- public.h_search -->
<g id="node1" class="node">
<title>public.h_search</title>
<polygon fill="#efefef" stroke="none" points="46.2,-231 46.2,-266.6 306.87,-266.6 306.87,-231 46.2,-231"/>
<polygon fill="none" stroke="black" points="46.2,-231 46.2,-266.6 306.87,-266.6 306.87,-231 46.2,-231"/>
<text text-anchor="start" x="57.56" y="-244.4" font-family="Arial Bold" font-size="18.00">public.h_search</text>
<text text-anchor="start" x="171.02" y="-244.4" font-family="Arial" font-size="14.00">    </text>
<text text-anchor="start" x="202.14" y="-244.4" font-family="Arial" font-size="14.00" fill="#666666">[BASE TABLE]</text>
<polygon fill="none" stroke="black" points="46.2,-200.2 46.2,-231 306.87,-231 306.87,-200.2 46.2,-200.2"/>
<text text-anchor="start" x="53.2" y="-212.4" font-family="Arial" font-size="14.00">h_search_id </text>
<text text-anchor="start" x="133.37" y="-212.4" font-family="Arial" font-size="14.00" fill="#666666">[bigint]</text>
<polygon fill="none" stroke="black" points="46.2,-169.4 46.2,-200.2 306.87,-200.2 306.87,-169.4 46.2,-169.4"/>
<text text-anchor="start" x="53.2" y="-181.6" font-family="Arial" font-size="14.00">m_user_id </text>
<text text-anchor="start" x="122.45" y="-181.6" font-family="Arial" font-size="14.00" fill="#666666">[bigint]</text>
<polygon fill="none" stroke="black" points="46.2,-138.6 46.2,-169.4 306.87,-169.4 306.87,-138.6 46.2,-138.6"/>
<text text-anchor="start" x="53.2" y="-150.8" font-family="Arial" font-size="14.00">search_keyword </text>
<text text-anchor="start" x="159.03" y="-150.8" font-family="Arial" font-size="14.00" fill="#666666">[varchar(256)]</text>
<polygon fill="none" stroke="black" points="46.2,-107.8 46.2,-138.6 306.87,-138.6 306.87,-107.8 46.2,-107.8"/>
<text text-anchor="start" x="53.2" y="-120" font-family="Arial" font-size="14.00">searched_at </text>
<text text-anchor="start" x="134.14" y="-120" font-family="Arial" font-size="14.00" fill="#666666">[timestamp with time zone]</text>
<polygon fill="none" stroke="black" points="46.2,-77 46.2,-107.8 306.87,-107.8 306.87,-77 46.2,-77"/>
<text text-anchor="start" x="53.2" y="-89.2" font-family="Arial" font-size="14.00">created_at </text>
<text text-anchor="start" x="123.25" y="-89.2" font-family="Arial" font-size="14.00" fill="#666666">[timestamp with time zone]</text>
<polygon fill="none" stroke="black" points="46.2,-46.2 46.2,-77 306.87,-77 306.87,-46.2 46.2,-46.2"/>
<text text-anchor="start" x="53.2" y="-58.4" font-family="Arial" font-size="14.00">updated_at </text>
<text text-anchor="start" x="127.16" y="-58.4" font-family="Arial" font-size="14.00" fill="#666666">[timestamp with time zone]</text>
<polygon fill="none" stroke="black" stroke-width="3" points="44.7,-44.7 44.7,-268.1 308.37,-268.1 308.37,-44.7 44.7,-44.7"/>
</g>
</g>
</svg>
