<?xml version="1.0" encoding="UTF-8" standalone="no"?>
<!DOCTYPE svg PUBLIC "-//W3C//DTD SVG 1.1//EN"
 "http://www.w3.org/Graphics/SVG/1.1/DTD/svg11.dtd">
<!-- Generated by graphviz version 12.1.2 (20240928.0832)
 -->
<!-- Title: public.t_ratelimit Pages: 1 -->
<svg width="363pt" height="290pt"
 viewBox="0.00 0.00 363.36 290.00" xmlns="http://www.w3.org/2000/svg" xmlns:xlink="http://www.w3.org/1999/xlink">
<g id="graph0" class="graph" transform="scale(1 1) rotate(0) translate(4 286)">
<title>public.t_ratelimit</title>
<polygon fill="white" stroke="none" points="-4,4 -4,-286 359.36,-286 359.36,4 -4,4"/>
<!-- public.t_ratelimit -->
<g id="node1" class="node">
<title>public.t_ratelimit</title>
<polygon fill="#efefef" stroke="none" points="46.2,-200.2 46.2,-235.8 309.16,-235.8 309.16,-200.2 46.2,-200.2"/>
<polygon fill="none" stroke="black" points="46.2,-200.2 46.2,-235.8 309.16,-235.8 309.16,-200.2 46.2,-200.2"/>
<text text-anchor="start" x="53.2" y="-213.6" font-family="Arial Bold" font-size="18.00">public.t_ratelimit</text>
<text text-anchor="start" x="177.67" y="-213.6" font-family="Arial" font-size="14.00">    </text>
<text text-anchor="start" x="208.79" y="-213.6" font-family="Arial" font-size="14.00" fill="#666666">[BASE TABLE]</text>
<polygon fill="none" stroke="black" points="46.2,-169.4 46.2,-200.2 309.16,-200.2 309.16,-169.4 46.2,-169.4"/>
<text text-anchor="start" x="53.2" y="-181.6" font-family="Arial" font-size="14.00">t_ratelimit_id </text>
<text text-anchor="start" x="136.45" y="-181.6" font-family="Arial" font-size="14.00" fill="#666666">[bigint]</text>
<polygon fill="none" stroke="black" points="46.2,-138.6 46.2,-169.4 309.16,-169.4 309.16,-138.6 46.2,-138.6"/>
<text text-anchor="start" x="53.2" y="-150.8" font-family="Arial" font-size="14.00">user_public_id </text>
<text text-anchor="start" x="147.37" y="-150.8" font-family="Arial" font-size="14.00" fill="#666666">[uuid]</text>
<polygon fill="none" stroke="black" points="46.2,-107.8 46.2,-138.6 309.16,-138.6 309.16,-107.8 46.2,-107.8"/>
<text text-anchor="start" x="53.2" y="-120" font-family="Arial" font-size="14.00">consumed_quota </text>
<text text-anchor="start" x="164.5" y="-120" font-family="Arial" font-size="14.00" fill="#666666">[integer]</text>
<polygon fill="none" stroke="black" points="46.2,-77 46.2,-107.8 309.16,-107.8 309.16,-77 46.2,-77"/>
<text text-anchor="start" x="53.2" y="-89.2" font-family="Arial" font-size="14.00">created_at </text>
<text text-anchor="start" x="123.25" y="-89.2" font-family="Arial" font-size="14.00" fill="#666666">[timestamp with time zone]</text>
<polygon fill="none" stroke="black" points="46.2,-46.2 46.2,-77 309.16,-77 309.16,-46.2 46.2,-46.2"/>
<text text-anchor="start" x="53.2" y="-58.4" font-family="Arial" font-size="14.00">updated_at </text>
<text text-anchor="start" x="127.16" y="-58.4" font-family="Arial" font-size="14.00" fill="#666666">[timestamp with time zone]</text>
<polygon fill="none" stroke="black" stroke-width="3" points="44.7,-44.7 44.7,-237.3 310.66,-237.3 310.66,-44.7 44.7,-44.7"/>
</g>
</g>
</svg>
