<?xml version="1.0" encoding="UTF-8" standalone="no"?>
<!DOCTYPE svg PUBLIC "-//W3C//DTD SVG 1.1//EN"
 "http://www.w3.org/Graphics/SVG/1.1/DTD/svg11.dtd">
<!-- Generated by graphviz version 12.1.2 (20240928.0832)
 -->
<!-- Title: public.m_playlist_video Pages: 1 -->
<svg width="811pt" height="787pt"
 viewBox="0.00 0.00 811.16 786.80" xmlns="http://www.w3.org/2000/svg" xmlns:xlink="http://www.w3.org/1999/xlink">
<g id="graph0" class="graph" transform="scale(1 1) rotate(0) translate(4 782.8)">
<title>public.m_playlist_video</title>
<polygon fill="white" stroke="none" points="-4,4 -4,-782.8 807.16,-782.8 807.16,4 -4,4"/>
<!-- public.m_playlist_video -->
<g id="node1" class="node">
<title>public.m_playlist_video</title>
<polygon fill="#efefef" stroke="none" points="46.2,-697 46.2,-732.6 359.17,-732.6 359.17,-697 46.2,-697"/>
<polygon fill="none" stroke="black" points="46.2,-697 46.2,-732.6 359.17,-732.6 359.17,-697 46.2,-697"/>
<text text-anchor="start" x="53.2" y="-710.4" font-family="Arial Bold" font-size="18.00">public.m_playlist_video</text>
<text text-anchor="start" x="227.68" y="-710.4" font-family="Arial" font-size="14.00">    </text>
<text text-anchor="start" x="258.8" y="-710.4" font-family="Arial" font-size="14.00" fill="#666666">[BASE TABLE]</text>
<polygon fill="none" stroke="black" points="46.2,-666.2 46.2,-697 359.17,-697 359.17,-666.2 46.2,-666.2"/>
<text text-anchor="start" x="53.2" y="-678.4" font-family="Arial" font-size="14.00">m_playlist_video_id </text>
<text text-anchor="start" x="179.27" y="-678.4" font-family="Arial" font-size="14.00" fill="#666666">[bigint]</text>
<polygon fill="none" stroke="black" points="46.2,-635.4 46.2,-666.2 359.17,-666.2 359.17,-635.4 46.2,-635.4"/>
<text text-anchor="start" x="53.2" y="-647.6" font-family="Arial" font-size="14.00">m_playlist_id </text>
<text text-anchor="start" x="138.01" y="-647.6" font-family="Arial" font-size="14.00" fill="#666666">[bigint]</text>
<polygon fill="none" stroke="black" points="46.2,-604.6 46.2,-635.4 359.17,-635.4 359.17,-604.6 46.2,-604.6"/>
<text text-anchor="start" x="53.2" y="-616.8" font-family="Arial" font-size="14.00">m_video_id </text>
<text text-anchor="start" x="128.69" y="-616.8" font-family="Arial" font-size="14.00" fill="#666666">[bigint]</text>
<polygon fill="none" stroke="black" points="46.2,-573.8 46.2,-604.6 359.17,-604.6 359.17,-573.8 46.2,-573.8"/>
<text text-anchor="start" x="53.2" y="-586" font-family="Arial" font-size="14.00">playlist_position </text>
<text text-anchor="start" x="155.92" y="-586" font-family="Arial" font-size="14.00" fill="#666666">[bigint]</text>
<polygon fill="none" stroke="black" points="46.2,-543 46.2,-573.8 359.17,-573.8 359.17,-543 46.2,-543"/>
<text text-anchor="start" x="53.2" y="-555.2" font-family="Arial" font-size="14.00">created_at </text>
<text text-anchor="start" x="123.25" y="-555.2" font-family="Arial" font-size="14.00" fill="#666666">[timestamp with time zone]</text>
<polygon fill="none" stroke="black" points="46.2,-512.2 46.2,-543 359.17,-543 359.17,-512.2 46.2,-512.2"/>
<text text-anchor="start" x="53.2" y="-524.4" font-family="Arial" font-size="14.00">updated_at </text>
<text text-anchor="start" x="127.16" y="-524.4" font-family="Arial" font-size="14.00" fill="#666666">[timestamp with time zone]</text>
<polygon fill="none" stroke="black" stroke-width="3" points="44.7,-510.7 44.7,-734.1 360.67,-734.1 360.67,-510.7 44.7,-510.7"/>
</g>
<!-- public.m_playlist -->
<g id="node2" class="node">
<title>public.m_playlist</title>
<polygon fill="#efefef" stroke="none" points="70.7,-351.2 70.7,-386.8 334.67,-386.8 334.67,-351.2 70.7,-351.2"/>
<polygon fill="none" stroke="black" points="70.7,-351.2 70.7,-386.8 334.67,-386.8 334.67,-351.2 70.7,-351.2"/>
<text text-anchor="start" x="77.7" y="-364.6" font-family="Arial Bold" font-size="18.00">public.m_playlist</text>
<text text-anchor="start" x="203.19" y="-364.6" font-family="Arial" font-size="14.00">    </text>
<text text-anchor="start" x="234.3" y="-364.6" font-family="Arial" font-size="14.00" fill="#666666">[BASE TABLE]</text>
<polygon fill="none" stroke="black" points="70.7,-320.4 70.7,-351.2 334.67,-351.2 334.67,-320.4 70.7,-320.4"/>
<text text-anchor="start" x="77.7" y="-332.6" font-family="Arial" font-size="14.00">m_playlist_id </text>
<text text-anchor="start" x="162.51" y="-332.6" font-family="Arial" font-size="14.00" fill="#666666">[bigint]</text>
<polygon fill="none" stroke="black" points="70.7,-289.6 70.7,-320.4 334.67,-320.4 334.67,-289.6 70.7,-289.6"/>
<text text-anchor="start" x="77.7" y="-301.8" font-family="Arial" font-size="14.00">m_user_id </text>
<text text-anchor="start" x="146.95" y="-301.8" font-family="Arial" font-size="14.00" fill="#666666">[bigint]</text>
<polygon fill="none" stroke="black" points="70.7,-258.8 70.7,-289.6 334.67,-289.6 334.67,-258.8 70.7,-258.8"/>
<text text-anchor="start" x="77.7" y="-271" font-family="Arial" font-size="14.00">visibility_code </text>
<text text-anchor="start" x="167.96" y="-271" font-family="Arial" font-size="14.00" fill="#666666">[integer]</text>
<polygon fill="none" stroke="black" points="70.7,-228 70.7,-258.8 334.67,-258.8 334.67,-228 70.7,-228"/>
<text text-anchor="start" x="77.7" y="-240.2" font-family="Arial" font-size="14.00">playlist_title </text>
<text text-anchor="start" x="153.95" y="-240.2" font-family="Arial" font-size="14.00" fill="#666666">[varchar(128)]</text>
<polygon fill="none" stroke="black" points="70.7,-197.2 70.7,-228 334.67,-228 334.67,-197.2 70.7,-197.2"/>
<text text-anchor="start" x="77.7" y="-209.4" font-family="Arial" font-size="14.00">playlist_code </text>
<text text-anchor="start" x="162.52" y="-209.4" font-family="Arial" font-size="14.00" fill="#666666">[integer]</text>
<polygon fill="none" stroke="black" points="70.7,-166.4 70.7,-197.2 334.67,-197.2 334.67,-166.4 70.7,-166.4"/>
<text text-anchor="start" x="77.7" y="-178.6" font-family="Arial" font-size="14.00">video_count </text>
<text text-anchor="start" x="157.09" y="-178.6" font-family="Arial" font-size="14.00" fill="#666666">[integer]</text>
<polygon fill="none" stroke="black" points="70.7,-135.6 70.7,-166.4 334.67,-166.4 334.67,-135.6 70.7,-135.6"/>
<text text-anchor="start" x="77.7" y="-147.8" font-family="Arial" font-size="14.00">created_at </text>
<text text-anchor="start" x="147.74" y="-147.8" font-family="Arial" font-size="14.00" fill="#666666">[timestamp with time zone]</text>
<polygon fill="none" stroke="black" points="70.7,-104.8 70.7,-135.6 334.67,-135.6 334.67,-104.8 70.7,-104.8"/>
<text text-anchor="start" x="77.7" y="-117" font-family="Arial" font-size="14.00">updated_at </text>
<text text-anchor="start" x="151.65" y="-117" font-family="Arial" font-size="14.00" fill="#666666">[timestamp with time zone]</text>
<polygon fill="none" stroke="black" points="70.7,-74 70.7,-104.8 334.67,-104.8 334.67,-74 70.7,-74"/>
<text text-anchor="start" x="77.7" y="-86.2" font-family="Arial" font-size="14.00">public_id </text>
<text text-anchor="start" x="136.85" y="-86.2" font-family="Arial" font-size="14.00" fill="#666666">[uuid]</text>
<polygon fill="none" stroke="black" points="70.7,-43.2 70.7,-74 334.67,-74 334.67,-43.2 70.7,-43.2"/>
<text text-anchor="start" x="77.7" y="-55.4" font-family="Arial" font-size="14.00">playlist_description </text>
<text text-anchor="start" x="199.87" y="-55.4" font-family="Arial" font-size="14.00" fill="#666666">[varchar(255)]</text>
</g>
<!-- public.m_playlist_video&#45;&gt;public.m_playlist -->
<g id="edge1" class="edge">
<title>public.m_playlist_video:m_playlist_id&#45;&gt;public.m_playlist:m_playlist_id</title>
<path fill="none" stroke="black" d="M370.14,-648.45C427.78,-619.62 402.32,-335.8 335.67,-335.8"/>
<polygon fill="black" stroke="black" points="370.23,-648.42 359.46,-646.34 365.04,-649.65 360.82,-650.65 360.82,-650.65 360.82,-650.65 365.04,-649.65 361.53,-655.1 370.23,-648.42"/>
<text text-anchor="start" x="367.17" y="-660.8" font-family="Arial" font-size="10.00">FOREIGN KEY (m_playlist_id) REFERENCES m_playlist(m_playlist_id) ON DELETE CASCADE</text>
</g>
</g>
</svg>
